<?xml version="1.0" encoding="UTF-8"?>
<svg version="1.1" xmlns="http://www.w3.org/2000/svg" width="361" height="272">
<path d="M0 0 C54.78 0 109.56 0 166 0 C166 9.98664886 164.80076406 17.6843644 162 27 C161.49146484 28.69382812 161.49146484 28.69382812 160.97265625 30.421875 C157.86852974 39.48018013 152.81331761 46.52032425 147 54 C146.49726563 54.68835938 145.99453125 55.37671875 145.4765625 56.0859375 C133.47381085 71.58039872 112.93106105 80.60939487 93.98388672 83.28466797 C71.06137837 86.0398038 49.08512788 79.55610788 30.94921875 65.4375 C13.84380904 51.30004879 3.68633148 32.89145454 0 11 C0 7.37 0 3.74 0 0 Z M36.75 41.4375 C34.05711662 45.38065066 33 47.12170314 33 52 C44.55 52 56.1 52 68 52 C67.0191032 44.61671168 67.0191032 44.61671168 63 39 C54.65381044 33.89008802 43.59647647 34.02048382 36.75 41.4375 Z M101.1875 41.75 C98.43428606 45.33130611 98.43428606 45.33130611 98 52 C109.55 52 121.1 52 133 52 C132.397574 45.58824861 132.397574 45.58824861 129.25 41.1875 C128.76015625 40.62417969 128.2703125 40.06085938 127.765625 39.48046875 C123.20029731 35.65246168 118.35723322 35.62372756 112.65234375 35.75390625 C107.47979491 36.23383346 104.83225638 38.1862382 101.1875 41.75 Z " fill="#D09718" transform="translate(85,83)"/>
<path d="M0 0 C9.88981875 8.36679159 17.72546903 17.48898722 24.75244141 28.35693359 C27.76699128 33.03860709 27.76699128 33.03860709 32.52587891 35.39599609 C34.00894531 35.68023437 34.00894531 35.68023437 35.52197266 35.97021484 C47.19759501 38.69921573 57.74973099 46.1777133 64.20947266 56.34521484 C70.04527157 67.23034332 72.82051589 76.69802747 72.58447266 89.09521484 C72.56900391 90.37058105 72.55353516 91.64594727 72.53759766 92.95996094 C72.10845754 109.06303109 67.04637255 121.19932056 55.20947266 132.47021484 C47.78870531 138.51138748 39.6773326 142.15493511 30.13916016 142.94287109 C29.06021484 143.29671875 29.06021484 143.29671875 27.95947266 143.65771484 C26.84756091 145.88144915 26.84756091 145.88144915 25.95947266 148.65771484 C24.50515913 150.92308784 23.03431482 153.10538194 21.45947266 155.28271484 C20.79516235 156.20250122 20.79516235 156.20250122 20.11743164 157.14086914 C1.80291144 182.08165076 -25.20926791 198.6862373 -55.66552734 203.97021484 C-87.2039149 207.74465938 -117.79111184 201.45259917 -143.4140625 181.95263672 C-152.76411933 174.50852062 -163.28229377 165.56894027 -169.09912109 155.06396484 C-172.91812514 147.86521718 -172.91812514 147.86521718 -179.33349609 143.12255859 C-181.71729393 142.5220599 -184.11727915 141.98246286 -186.52880859 141.50537109 C-198.51650479 138.61178925 -207.72652705 128.72184864 -214.04052734 118.65771484 C-218.89248243 108.96572595 -220.22078779 100.62226071 -220.22802734 89.90771484 C-220.24027344 88.96927734 -220.25251953 88.03083984 -220.26513672 87.06396484 C-220.29650454 71.92376508 -215.91464757 59.90491086 -205.33349609 48.84521484 C-198.32823966 42.16217634 -191.12457177 37.38945253 -181.54052734 35.65771484 C-176.48394453 34.3813636 -174.67500817 32.43629733 -171.85302734 28.09521484 C-170.57978647 25.95080916 -169.30890098 23.80500299 -168.04052734 21.65771484 C-150.39745543 -2.94009496 -123.73347628 -20.07602448 -93.85302734 -25.15478516 C-59.8128372 -30.27837437 -26.71038343 -21.8658211 0 0 Z M-105.04052734 -12.34228516 C-105.71873535 -12.13861328 -106.39694336 -11.93494141 -107.09570312 -11.72509766 C-124.02339976 -6.48046585 -137.70319787 3.11091581 -150.04052734 15.65771484 C-151.28962891 16.90875 -151.28962891 16.90875 -152.56396484 18.18505859 C-171.57097636 38.19756048 -180.43686827 65.5710538 -180.19287109 92.76318359 C-179.05831491 121.7670943 -166.76056644 147.57568282 -146.04052734 167.65771484 C-122.4460319 188.76347584 -94.43596289 195.85587108 -63.39794922 194.85302734 C-56.00768873 194.42311109 -49.06658295 192.94197059 -42.04052734 190.65771484 C-41.39374023 190.44872559 -40.74695313 190.23973633 -40.08056641 190.02441406 C-14.85839983 181.54290465 6.03195507 163.8043932 18.95947266 140.65771484 C19.50474609 139.70251953 20.05001953 138.74732422 20.61181641 137.76318359 C33.68651113 113.44358602 34.86294817 85.16037446 27.96337891 58.86083984 C23.66573514 44.76337864 16.80305047 31.66047846 6.95947266 20.65771484 C6.25048828 19.81853516 5.54150391 18.97935547 4.81103516 18.11474609 C-9.00806727 2.08943609 -26.80733402 -7.83443897 -47.04052734 -13.34228516 C-48.22517578 -13.68130859 -49.40982422 -14.02033203 -50.63037109 -14.36962891 C-68.32670553 -18.6892066 -87.7050382 -17.69024848 -105.04052734 -12.34228516 Z M-197.29052734 53.90771484 C-207.5625307 64.1797182 -210.37781594 75.53937351 -210.54052734 89.72021484 C-210.55905762 90.72511963 -210.57758789 91.73002441 -210.59667969 92.76538086 C-210.49955583 104.42690875 -206.40695214 114.79073576 -198.45068359 123.37255859 C-193.9163522 127.5654815 -188.62576978 130.11794665 -183.04052734 132.65771484 C-181.69308083 128.61537532 -183.06567401 125.91345732 -184.35302734 122.03271484 C-191.31876185 99.7097762 -191.30297018 73.7853761 -182.81005859 51.83740234 C-181.87407309 49.5714919 -181.87407309 49.5714919 -182.04052734 46.65771484 C-187.33579667 46.65771484 -193.0822948 50.99432308 -197.29052734 53.90771484 Z M34.95947266 47.65771484 C35.22759766 48.87458984 35.49572266 50.09146484 35.77197266 51.34521484 C35.95244141 52.16505859 36.13291016 52.98490234 36.31884766 53.82958984 C36.77042552 55.82314091 37.2409732 57.81244158 37.72509766 59.79833984 C37.98806641 60.88630859 38.25103516 61.97427734 38.52197266 63.09521484 C38.77076172 64.10455078 39.01955078 65.11388672 39.27587891 66.15380859 C43.13175912 85.91794886 42.07097439 107.73350212 35.51025391 126.81005859 C34.81663538 128.81554444 34.81663538 128.81554444 34.95947266 131.65771484 C43.5837464 130.32857984 49.77056373 124.50792367 55.23681641 118.00927734 C63.63706269 106.54227448 64.22439712 91.85760576 62.52978516 78.19287109 C60.30731388 66.65522701 54.53416825 57.50235466 44.95947266 50.65771484 C41.07811383 48.34382785 39.51673088 47.65771484 34.95947266 47.65771484 Z " fill="#BE9A0B" transform="translate(242.04052734375,35.34228515625)"/>
<path d="M0 0 C1.2065625 0.0309375 1.2065625 0.0309375 2.4375 0.0625 C2.7675 1.0525 3.0975 2.0425 3.4375 3.0625 C4.52998047 3.22105469 4.52998047 3.22105469 5.64453125 3.3828125 C8.66810541 4.11861936 10.5651226 5.19035108 13.125 6.9375 C13.89199219 7.45054688 14.65898437 7.96359375 15.44921875 8.4921875 C17.4375 10.0625 17.4375 10.0625 19.4375 13.0625 C22.00032742 13.79215366 22.00032742 13.79215366 24.4375 14.0625 C24.4375 15.3825 24.4375 16.7025 24.4375 18.0625 C24.97375 18.31 25.51 18.5575 26.0625 18.8125 C29.0198982 20.36902537 31.73474051 22.09685673 34.4375 24.0625 C34.4375 24.7225 34.4375 25.3825 34.4375 26.0625 C36.10029327 27.0689275 37.76733484 28.06835407 39.4375 29.0625 C41.4375 32.0625 41.4375 32.0625 41.4375 35.0625 C42.4275 35.3925 43.4175 35.7225 44.4375 36.0625 C45.11882451 37.72322849 45.78492127 39.390267 46.4375 41.0625 C47.4275 41.7225 48.4175 42.3825 49.4375 43.0625 C50.125 46.6875 50.125 46.6875 50.4375 50.0625 C51.00726563 49.89492187 51.57703125 49.72734375 52.1640625 49.5546875 C56.02103148 48.7196736 59.63133044 49.07276306 63.4375 50.0625 C65.67923752 51.52450273 67.44475704 53.24688975 69.4375 55.0625 C72.65015916 56.38600658 72.65015916 56.38600658 75.4375 57.0625 C74.9425 58.0525 74.9425 58.0525 74.4375 59.0625 C72.15234375 59.4765625 72.15234375 59.4765625 69.375 59.6875 C68.45589844 59.76226562 67.53679687 59.83703125 66.58984375 59.9140625 C65.87957031 59.96304688 65.16929687 60.01203125 64.4375 60.0625 C64.4375 59.4025 64.4375 58.7425 64.4375 58.0625 C62.1275 58.0625 59.8175 58.0625 57.4375 58.0625 C56.4475 60.7025 55.4575 63.3425 54.4375 66.0625 C53.7775 66.0625 53.1175 66.0625 52.4375 66.0625 C51.4475 63.0925 50.4575 60.1225 49.4375 57.0625 C50.0975 56.4025 50.7575 55.7425 51.4375 55.0625 C50.426875 55.145 49.41625 55.2275 48.375 55.3125 C46.43359375 55.046875 46.43359375 55.046875 44.4375 54.0625 C42.37900143 51.25751294 40.81567989 48.33323944 39.18359375 45.26171875 C36.73408133 40.77368592 33.71680421 36.96643358 30.4375 33.0625 C29.82132813 32.31226563 29.20515625 31.56203125 28.5703125 30.7890625 C22.10093941 23.17650701 14.67222056 17.28636033 6.1328125 12.15234375 C3.89843625 10.71595902 2.12899511 9.10638993 0.4375 7.0625 C0.4375 6.4025 0.4375 5.7425 0.4375 5.0625 C-0.8825 4.7325 -2.2025 4.4025 -3.5625 4.0625 C-3.5625 0.08689024 -3.5625 0.08689024 0 0 Z " fill="#C09D03" transform="translate(217.5625,22.9375)"/>
<path d="M0 0 C9.41678244 1.37186938 16.99754862 8.1537129 22.9921875 15.1796875 C28.85362158 23.41306377 33.24549311 33.51914632 33.265625 43.68359375 C33.26949219 45.56981445 33.26949219 45.56981445 33.2734375 47.49414062 C33.26570313 48.79544922 33.25796875 50.09675781 33.25 51.4375 C33.26160156 53.38366211 33.26160156 53.38366211 33.2734375 55.36914062 C33.27085937 56.62791016 33.26828125 57.88667969 33.265625 59.18359375 C33.26336914 60.32368896 33.26111328 61.46378418 33.25878906 62.63842773 C32.97065662 66.38115946 32.14066312 69.43443661 31 73 C30.67 73 30.34 73 30 73 C30 70.36 30 67.72 30 65 C30.66 65 31.32 65 32 65 C31.89004549 61.0827588 31.75943266 57.16647155 31.625 53.25 C31.5940625 52.13882813 31.563125 51.02765625 31.53125 49.8828125 C31.47324219 48.27792969 31.47324219 48.27792969 31.4140625 46.640625 C31.3826416 45.65610352 31.3512207 44.67158203 31.31884766 43.65722656 C30.99897742 40.99147799 30.35631379 39.29383595 29 37 C26.8614515 39.1385485 26.57344937 40.13275314 26 43 C25.01 43 24.02 43 23 43 C22.86464844 42.26136719 22.72929687 41.52273437 22.58984375 40.76171875 C20.27169516 29.83727 15.44256695 20.37482054 6 14 C2.6745784 12.10907399 -0.29966816 10.86367488 -4 10 C-3.66226562 10.969375 -3.32453125 11.93875 -2.9765625 12.9375 C2.53074695 29.25575869 3.31508036 44.91564275 3 62 C2.67 62 2.34 62 2 62 C1.92483154 61.01717041 1.84966309 60.03434082 1.7722168 59.02172852 C1.48729012 55.33619272 1.18732194 51.65200299 0.88305664 47.96801758 C0.75402172 46.38077533 0.62893648 44.7932064 0.50805664 43.20532227 C-0.13760353 34.75859934 -0.87106809 26.95618783 -4 19 C-4.56624869 16.58757954 -5.0284872 14.18658453 -5.47265625 11.75 C-5.64667969 11.1725 -5.82070313 10.595 -6 10 C-6.66 9.67 -7.32 9.34 -8 9 C-7.67 8.34 -7.34 7.68 -7 7 C-4.36 7.33 -1.72 7.66 1 8 C1 8.66 1 9.32 1 10 C4.3 9.34 7.6 8.68 11 8 C11 7.67 11 7.34 11 7 C10.113125 6.773125 9.22625 6.54625 8.3125 6.3125 C4.56619468 4.82811487 2.66270566 2.97596515 0 0 Z " fill="#BAA41C" transform="translate(281,73)"/>
<path d="M0 0 C30.64878839 -0.56007938 30.64878839 -0.56007938 41 5 C43.23525035 5.68636625 43.23525035 5.68636625 45 6 C45 6.66 45 7.32 45 8 C46.6396875 8.2165625 46.6396875 8.2165625 48.3125 8.4375 C52 9 52 9 55 10 C54.34 11.98 53.68 13.96 53 16 C51.35 16 49.7 16 48 16 C48 15.34 48 14.68 48 14 C43.36733217 13.0394652 38.71060027 12.31556314 34.03515625 11.59765625 C31 11 31 11 28.26196289 9.97045898 C24.58672167 8.87704653 21.60240592 8.80345836 17.7734375 8.875 C17.10333649 8.88257324 16.43323547 8.89014648 15.74282837 8.89794922 C13.61994548 8.92220049 11.49763032 8.95945863 9.375 9 C6.57032675 9.05330148 3.7659278 9.09320822 0.9609375 9.125 C-0.89845459 9.15980469 -0.89845459 9.15980469 -2.79541016 9.1953125 C-5.83467191 9.01007637 -7.46319644 8.6083572 -10 7 C-11.32 7.99 -12.64 8.98 -14 10 C-17 8 -17 8 -18 5 C-14.34827367 2.73150334 -10.9872882 2.6104049 -6.75 2.375 C-5.48671875 2.30023438 -4.2234375 2.22546875 -2.921875 2.1484375 C-1.95765625 2.09945313 -0.9934375 2.05046875 0 2 C0 1.34 0 0.68 0 0 Z " fill="#B99602" transform="translate(158,9)"/>
<path d="M0 0 C54.78 0 109.56 0 166 0 C166 12.375 166 12.375 165 17 C164.67 17 164.34 17 164 17 C163.93941406 16.07316406 163.87882813 15.14632812 163.81640625 14.19140625 C163.73261719 12.99386719 163.64882812 11.79632813 163.5625 10.5625 C163.48128906 9.36753906 163.40007812 8.17257813 163.31640625 6.94140625 C163.32343886 4.11429756 163.32343886 4.11429756 162 3 C159.93738494 2.89091084 157.87099364 2.85308597 155.80552673 2.84178162 C155.15130393 2.83684364 154.49708113 2.83190566 153.82303339 2.82681805 C151.61501649 2.81137172 149.40702881 2.80306327 147.19897461 2.79467773 C145.62248982 2.7851048 144.04600764 2.77509508 142.4695282 2.76467896 C138.17635247 2.73756038 133.88316567 2.71658859 129.58995128 2.69667697 C125.10825106 2.67486014 120.62658523 2.64745047 116.14491272 2.62062073 C107.65221585 2.57063546 99.15949995 2.52571835 90.66676575 2.48259836 C81.00064019 2.43327574 71.33454913 2.37833922 61.66845691 2.32291877 C41.7790032 2.2090092 21.88951606 2.10238895 2 2 C2.33 7.94 2.66 13.88 3 20 C-0.55160784 12.89678432 0 8.35599846 0 0 Z " fill="#C5A63E" transform="translate(85,83)"/>
<path d="M0 0 C12.60168849 1.71975984 24.50169382 6.93199143 35 14 C36.05445313 14.68449219 37.10890625 15.36898438 38.1953125 16.07421875 C52.41808316 25.56010068 63.5957356 37.39389385 72.828125 51.734375 C75.7367597 56.26146579 75.7367597 56.26146579 80.26171875 58.73046875 C81.06222656 58.88128906 81.86273438 59.03210938 82.6875 59.1875 C83.89986328 59.42533203 83.89986328 59.42533203 85.13671875 59.66796875 C85.75160156 59.77753906 86.36648438 59.88710937 87 60 C87 60.33 87 60.66 87 61 C82.71 61 78.42 61 74 61 C73.505 57.535 73.505 57.535 73 54 C72.195625 53.773125 71.39125 53.54625 70.5625 53.3125 C69.716875 52.879375 68.87125 52.44625 68 52 C67.3125 49.4375 67.3125 49.4375 67 47 C66.34 46.67 65.68 46.34 65 46 C64.02652259 44.21529141 63.05321422 42.43048944 62.08203125 40.64453125 C60.71524576 38.56721467 59.26339976 37.93657921 57 37 C56.67 36.01 56.34 35.02 56 34 C53.97403236 32.63364973 51.87087473 31.52702116 49.71484375 30.37890625 C49.14894531 29.92386719 48.58304687 29.46882813 48 29 C48 27.68 48 26.36 48 25 C46.35 25 44.7 25 43 25 C42.773125 24.38125 42.54625 23.7625 42.3125 23.125 C40.59178944 20.33908767 39.03098673 20.12780902 36 19 C34.7315625 17.9790625 34.7315625 17.9790625 33.4375 16.9375 C31.08407926 15.06683223 29.83997403 14.60856586 27 14 C26.505 13.01 26.505 13.01 26 12 C24.35 12 22.7 12 21 12 C21 12.99 21 13.98 21 15 C21.99 15.33 22.98 15.66 24 16 C25.38576923 17.62332967 26.72641268 19.28724465 28 21 C25.24818699 19.91171237 22.51531577 18.79337457 19.79296875 17.6328125 C7.082423 12.31724299 -6.18351101 8.18410012 -20.0546875 7.68359375 C-21.16328125 7.64169922 -22.271875 7.59980469 -23.4140625 7.55664062 C-24.55617187 7.51732422 -25.69828125 7.47800781 -26.875 7.4375 C-28.0403125 7.39431641 -29.205625 7.35113281 -30.40625 7.30664062 C-33.27072625 7.20098371 -36.13528321 7.09888201 -39 7 C-38.67 6.34 -38.34 5.68 -38 5 C-33.68763079 4.91210285 -29.3754955 4.8593077 -25.0625 4.8125 C-23.85013672 4.78736328 -22.63777344 4.76222656 -21.38867188 4.73632812 C-15.03720995 4.68469022 -9.74429055 4.97765042 -3.80834961 7.30297852 C-1.61949982 8.14666235 0.4148083 8.4264268 2.75 8.5625 C6.15687063 8.84889193 8.88745077 9.49392779 12 11 C12 11.66 12 12.32 12 13 C13.65 13 15.3 13 17 13 C17 11.35 17 9.7 17 8 C17.66 7.67 18.32 7.34 19 7 C14.05 6.01 14.05 6.01 9 5 C9 4.34 9 3.68 9 3 C7.88625 2.87625 6.7725 2.7525 5.625 2.625 C2 2 2 2 0 0 Z " fill="#B6A01C" transform="translate(194,12)"/>
<path d="M0 0 C1.2065625 0.0309375 1.2065625 0.0309375 2.4375 0.0625 C2.7675 1.0525 3.0975 2.0425 3.4375 3.0625 C4.52998047 3.22105469 4.52998047 3.22105469 5.64453125 3.3828125 C8.66810541 4.11861936 10.5651226 5.19035108 13.125 6.9375 C13.89199219 7.45054688 14.65898437 7.96359375 15.44921875 8.4921875 C17.4375 10.0625 17.4375 10.0625 19.4375 13.0625 C22.00032742 13.79215366 22.00032742 13.79215366 24.4375 14.0625 C24.4375 15.3825 24.4375 16.7025 24.4375 18.0625 C24.97375 18.31 25.51 18.5575 26.0625 18.8125 C29.00174252 20.35946975 31.69504408 22.19264369 34.4375 24.0625 C34.210625 25.135 33.98375 26.2075 33.75 27.3125 C33.0733587 30.94374604 33.0733587 30.94374604 34.75 33.1875 C35.306875 33.80625 35.86375 34.425 36.4375 35.0625 C36.9325 36.361875 36.9325 36.361875 37.4375 37.6875 C38.31333581 40.37809565 38.31333581 40.37809565 41.4375 42.0625 C41.4375 43.3825 41.4375 44.7025 41.4375 46.0625 C42.0975 46.0625 42.7575 46.0625 43.4375 46.0625 C43.9325 49.0325 43.9325 49.0325 44.4375 52.0625 C41.76675936 48.83799888 39.49977073 45.60287211 37.375 42 C29.51190817 29.53330313 18.72916747 19.72545595 6.1328125 12.15234375 C3.89843625 10.71595902 2.12899511 9.10638993 0.4375 7.0625 C0.4375 6.4025 0.4375 5.7425 0.4375 5.0625 C-0.8825 4.7325 -2.2025 4.4025 -3.5625 4.0625 C-3.5625 0.08689024 -3.5625 0.08689024 0 0 Z " fill="#C6A203" transform="translate(217.5625,22.9375)"/>
<path d="M0 0 C2 1 2 1 2.7109375 2.7734375 C3.06307434 5.48584292 2.51783441 7.04479048 1.625 9.625 C-2.12028158 22.46840854 -1.16268018 36.73252748 -1 50 C-4.16115776 48.63016497 -4.9927092 48.0109362 -7 45 C-7.125 42.3125 -7.125 42.3125 -7 40 C-7.99 40 -8.98 40 -10 40 C-10.02893932 36.37501666 -10.04677792 32.75006287 -10.0625 29.125 C-10.07087891 28.09246094 -10.07925781 27.05992188 -10.08789062 25.99609375 C-10.09111328 25.00996094 -10.09433594 24.02382812 -10.09765625 23.0078125 C-10.10289307 22.09660645 -10.10812988 21.18540039 -10.11352539 20.24658203 C-10 18 -10 18 -9 16 C-8.34 16 -7.68 16 -7 16 C-7.061875 14.39125 -7.061875 14.39125 -7.125 12.75 C-7.0114175 9.34252515 -6.78726636 7.79260369 -5 5 C-3.35 5 -1.7 5 0 5 C0 4.01 0 3.02 0 2 C0 1.34 0 0.68 0 0 Z " fill="#BE940A" transform="translate(32,96)"/>
<path d="M0 0 C0.66 1.32 1.32 2.64 2 4 C1.34 4 0.68 4 0 4 C0 4.66 0 5.32 0 6 C-1.32 6 -2.64 6 -4 6 C-4 6.99 -4 7.98 -4 9 C-4.66 9 -5.32 9 -6 9 C-6.2784375 10.11375 -6.2784375 10.11375 -6.5625 11.25 C-8.5322534 15.01822389 -11.09565783 16.46674975 -15 18 C-17.9375 18.25 -17.9375 18.25 -20 18 C-20.33 17.34 -20.66 16.68 -21 16 C-21 17.32 -21 18.64 -21 20 C-24.57253158 20.73282699 -27.33506364 21 -31 21 C-31.33 21.99 -31.66 22.98 -32 24 C-34.90018326 25.61121292 -36.50161669 26.06645111 -39.8125 25.625 C-40.8953125 25.315625 -40.8953125 25.315625 -42 25 C-42 24.34 -42 23.68 -42 23 C-42.99 22.67 -43.98 22.34 -45 22 C-45 21.01 -45 20.02 -45 19 C-33.31443512 14.87455427 -33.31443512 14.87455427 -28.875 14.375 C-25.87424716 14.280721 -25.87424716 14.280721 -24 12 C-21.67724823 11.59952556 -19.34260643 11.2602896 -17 11 C-16.67 10.01 -16.34 9.02 -16 8 C-13.70621741 6.48337763 -11.46544936 5.12947819 -9.0625 3.8125 C-8.41603516 3.44447266 -7.76957031 3.07644531 -7.10351562 2.69726562 C-2.28446776 0 -2.28446776 0 0 0 Z " fill="#B49406" transform="translate(241,207)"/>
<path d="M0 0 C2.72898661 2.72898661 4.7477395 4.85950703 6.875 7.93359375 C7.38546875 8.66513672 7.8959375 9.39667969 8.421875 10.15039062 C8.94265625 10.90513672 9.4634375 11.65988281 10 12.4375 C11.04016391 13.93724129 12.08179682 15.43596495 13.125 16.93359375 C13.61484375 17.63983887 14.1046875 18.34608398 14.609375 19.07373047 C15.78616221 20.70379561 17.0705029 22.25537593 18.375 23.78515625 C20 26 20 26 20 30 C13.4 29.67 6.8 29.34 0 29 C0 19.43 0 9.86 0 0 Z " fill="#FCFDFA" transform="translate(0,181)"/>
<path d="M0 0 C0.28875 0.61875 0.5775 1.2375 0.875 1.875 C1.93720042 4.13325765 1.93720042 4.13325765 4 6 C6.99332739 5.0022242 7.94766315 4.2477975 10 2 C9.43518603 5.15782356 8.68645546 8.23555498 7.84375 11.328125 C7.62589844 12.12863281 7.40804687 12.92914063 7.18359375 13.75390625 C6.73184386 15.4034387 6.27618267 17.05190551 5.81640625 18.69921875 C0.13953005 39.69358338 3.84407047 60.32622432 9 81 C6.36170741 79.68085371 6.01736771 78.76142665 5 76 C4.9222654 73.66796188 4.91032272 71.33160941 5 69 C4.34 69 3.68 69 3 69 C2.77213542 66.94921875 2.54427083 64.8984375 2.31640625 62.84765625 C2.18113386 60.98859771 2.18113386 60.98859771 1 60 C0.91141354 57.26105915 0.88476521 54.5474673 0.90234375 51.80859375 C0.9037587 50.98875504 0.90517365 50.16891632 0.90663147 49.32423401 C0.91224711 46.69528618 0.92480221 44.06642227 0.9375 41.4375 C0.94251299 39.65950643 0.94707624 37.88151154 0.95117188 36.10351562 C0.96222161 31.73564455 0.97949669 27.36783652 1 23 C0.01 23 -0.98 23 -2 23 C-2 23.66 -2 24.32 -2 25 C-2.66 25 -3.32 25 -4 25 C-6.19511664 15.76312306 -3.28853678 8.53426501 0 0 Z " fill="#B59C14" transform="translate(60,82)"/>
<path d="M0 0 C0.66 0 1.32 0 2 0 C3.6875 2.5625 3.6875 2.5625 5 6 C4.36490421 8.65152491 3.31240999 10.56961114 2 13 C1.34 13 0.68 13 0 13 C-0.103125 14.2375 -0.20625 15.475 -0.3125 16.75 C-0.74774392 20.25682248 -1.37051757 22.47569687 -4 25 C-4.66 25 -5.32 25 -6 25 C-6.33 25.66 -6.66 26.32 -7 27 C-7.66 27 -8.32 27 -9 27 C-9.66 24.36 -10.32 21.72 -11 19 C-14.12290635 19.48578543 -16.99580359 19.9986012 -20 21 C-21 16.25 -21 16.25 -21 14 C-19.02709413 11.65130253 -17.99693138 10.99897713 -15 10 C-13.64732959 9.93303612 -12.29163532 9.91472015 -10.9375 9.9375 C-8.95847298 9.96891313 -6.97927631 10 -5 10 C-4.01 8.02 -3.02 6.04 -2 4 C-1.34 4 -0.68 4 0 4 C0 2.68 0 1.36 0 0 Z " fill="#BA9805" transform="translate(71,63)"/>
<path d="M0 0 C1 2 1 2 0.546875 3.91015625 C0.28390625 4.62042969 0.0209375 5.33070313 -0.25 6.0625 C-0.62898438 7.13177734 -0.62898438 7.13177734 -1.015625 8.22265625 C-2 10 -2 10 -5 11 C-5.35412344 12.32796291 -5.68521554 13.66216607 -6 15 C-7.5625 16.75 -7.5625 16.75 -9 18 C-6 19.33333333 -6 19.33333333 -3 18 C-2.896875 16.88625 -2.79375 15.7725 -2.6875 14.625 C-2.460625 13.42875 -2.23375 12.2325 -2 11 C-1.01 10.34 -0.02 9.68 1 9 C1 9.66 1 10.32 1 11 C1.66 11 2.32 11 3 11 C3.33 10.01 3.66 9.02 4 8 C4.66 8.33 5.32 8.66 6 9 C-1.13760101 18.22371145 -8.85703487 25.75371381 -18 33 C-18.66 32.67 -19.32 32.34 -20 32 C-19.67 31.34 -19.34 30.68 -19 30 C-18.34 30 -17.68 30 -17 30 C-17 29.01 -17 28.02 -17 27 C-15.68 27 -14.36 27 -13 27 C-13 25.68 -13 24.36 -13 23 C-13 22.34 -13 21.68 -13 21 C-15.18026113 22.20631228 -17.35893724 23.41531176 -19.53515625 24.62890625 C-21.05991903 25.47707065 -22.5879517 26.31942127 -24.12109375 27.15234375 C-27.66813635 28.9395821 -27.66813635 28.9395821 -30 32 C-31.8125 32.81640625 -31.8125 32.81640625 -34 33.5625 C-36.73933017 34.39037842 -36.73933017 34.39037842 -39 36 C-40.66617115 36.04063832 -42.33388095 36.042721 -44 36 C-41.68548866 33.68548866 -39.59716456 32.80656793 -36.625 31.4375 C-22.00037797 24.23015039 -9.70507361 12.98528006 0 0 Z " fill="#B0960E" transform="translate(254,186)"/>
<path d="M0 0 C7.52529521 10.03372694 6.82886427 24.8740227 6 37 C5.02562888 43.61900378 4.04814451 48.60247399 0 54 C0 36.18 0 18.36 0 0 Z " fill="#FAFEF2" transform="translate(0,65)"/>
<path d="M0 0 C29.63724764 -0.57424161 29.63724764 -0.57424161 40 5 C42.23525035 5.68636625 42.23525035 5.68636625 44 6 C44 6.66 44 7.32 44 8 C45.6396875 8.2165625 45.6396875 8.2165625 47.3125 8.4375 C51 9 51 9 54 10 C53.34 11.98 52.68 13.96 52 16 C50.35 16 48.7 16 47 16 C47 15.34 47 14.68 47 14 C43.24142629 13.22597091 39.47373749 12.56160508 35.6875 11.9375 C34.08455078 11.67259766 34.08455078 11.67259766 32.44921875 11.40234375 C31.64097656 11.26957031 30.83273438 11.13679688 30 11 C30.33 8.69 30.66 6.38 31 4 C26.38 4 21.76 4 17 4 C17 3.67 17 3.34 17 3 C11.39 2.67 5.78 2.34 0 2 C0 1.34 0 0.68 0 0 Z " fill="#B99A0E" transform="translate(159,9)"/>
<path d="M0 0 C2.375 0.3125 2.375 0.3125 5 1 C7.29013653 4.4352048 7.17842973 5.985331 7 10 C8.32 10.66 9.64 11.32 11 12 C11 12.66 11 13.32 11 14 C11.66 14 12.32 14 13 14 C14.66653915 18.37611334 15.25636766 22.00962979 15.265625 26.68359375 C15.26949219 28.56981445 15.26949219 28.56981445 15.2734375 30.49414062 C15.26570313 31.79544922 15.25796875 33.09675781 15.25 34.4375 C15.25773437 35.73494141 15.26546875 37.03238281 15.2734375 38.36914062 C15.27085937 39.62791016 15.26828125 40.88667969 15.265625 42.18359375 C15.26336914 43.32368896 15.26111328 44.46378418 15.25878906 45.63842773 C14.97065662 49.38115946 14.14066312 52.43443661 13 56 C12.67 56 12.34 56 12 56 C12 53.36 12 50.72 12 48 C12.66 48 13.32 48 14 48 C13.89004549 44.0827588 13.75943266 40.16647155 13.625 36.25 C13.5940625 35.13882813 13.563125 34.02765625 13.53125 32.8828125 C13.49257813 31.81289062 13.45390625 30.74296875 13.4140625 29.640625 C13.3826416 28.65610352 13.3512207 27.67158203 13.31884766 26.65722656 C12.99897742 23.99147799 12.35631379 22.29383595 11 20 C8.8614515 22.1385485 8.57344937 23.13275314 8 26 C7.01 26 6.02 26 5 26 C4.49666458 23.39643759 3.99720622 20.79223349 3.5 18.1875 C3.35691406 17.44951172 3.21382813 16.71152344 3.06640625 15.95117188 C2.49073719 12.92205609 2 10.090804 2 7 C1.01 6.67 0.02 6.34 -1 6 C-0.67 4.02 -0.34 2.04 0 0 Z " fill="#B5A016" transform="translate(299,90)"/>
<path d="M0 0 C0.33 0 0.66 0 1 0 C1.33 8.25 1.66 16.5 2 25 C3.32 25.33 4.64 25.66 6 26 C5.34 26 4.68 26 4 26 C4.33 27.65 4.66 29.3 5 31 C6.61064629 27.34920174 7.44894091 23.9492568 8 20 C8.33 20 8.66 20 9 20 C9.20160136 25.93380001 8.55584985 31.06373092 7.125 36.8125 C6.95097656 37.56208984 6.77695312 38.31167969 6.59765625 39.08398438 C5.7673582 42.52510851 4.98106244 45.02840634 3 48 C3 45.03 3 42.06 3 39 C1.515 39.495 1.515 39.495 0 40 C-0.66 39.67 -1.32 39.34 -2 39 C-3.88391785 42.26545761 -4.49287967 45.28111761 -5 49 C-5.66 49 -6.32 49 -7 49 C-7 49.99 -7 50.98 -7 52 C-7.66 52 -8.32 52 -9 52 C-8.82984375 51.47535156 -8.6596875 50.95070312 -8.484375 50.41015625 C-6.71748889 44.7617597 -5.23914212 39.0688043 -3.875 33.3125 C-3.70452148 32.60037354 -3.53404297 31.88824707 -3.35839844 31.15454102 C-1.60646924 23.65137308 -0.81514618 16.24543296 -0.4375 8.5625 C-0.39431641 7.73556641 -0.35113281 6.90863281 -0.30664062 6.05664062 C-0.20161967 4.03790451 -0.10041441 2.01897049 0 0 Z " fill="#B69C12" transform="translate(274,116)"/>
<path d="M0 0 C6.75 -0.125 6.75 -0.125 9 1 C10.65795097 1.09631854 12.31972361 1.13075074 13.98046875 1.1328125 C15.4799707 1.13474609 15.4799707 1.13474609 17.00976562 1.13671875 C18.05841797 1.13285156 19.10707031 1.12898437 20.1875 1.125 C21.21681641 1.12886719 22.24613281 1.13273438 23.30664062 1.13671875 C28.64537015 1.12987861 33.74144987 0.93716735 39 0 C38.04076408 2.42801696 37.47378701 3.73221556 35.16333008 5.03808594 C29.54727136 6.81046609 24.56119226 7.40958164 18.6875 7.25 C17.86660889 7.23904297 17.04571777 7.22808594 16.19995117 7.21679688 C9.77621893 7.10086095 3.38632372 6.71384058 -3 6 C-2 4 -1 2 0 0 Z " fill="#BF9302" transform="translate(148,231)"/>
<path d="M0 0 C1.98 0 3.96 0 6 0 C7.23759823 3.71279469 7.35608897 7.31306346 7.5625 11.1875 C7.60568359 11.93708984 7.64886719 12.68667969 7.69335938 13.45898438 C7.79922685 15.30578375 7.9000976 17.15286834 8 19 C7.34 19 6.68 19 6 19 C5.96261719 19.69867188 5.92523438 20.39734375 5.88671875 21.1171875 C5.82097656 22.02726562 5.75523437 22.93734375 5.6875 23.875 C5.62949219 24.77992188 5.57148438 25.68484375 5.51171875 26.6171875 C5 29 5 29 2 31 C2 29.02 2 27.04 2 25 C1.34 24.67 0.68 24.34 0 24 C-0.92982259 21.21053224 -1.12857619 19.50389993 -1.1328125 16.62109375 C-1.13410156 15.78255859 -1.13539063 14.94402344 -1.13671875 14.08007812 C-1.13285156 13.20802734 -1.12898438 12.33597656 -1.125 11.4375 C-1.12886719 10.56158203 -1.13273437 9.68566406 -1.13671875 8.78320312 C-1.13542969 7.94595703 -1.13414062 7.10871094 -1.1328125 6.24609375 C-1.13168457 5.47966553 -1.13055664 4.7132373 -1.12939453 3.92358398 C-1 2 -1 2 0 0 Z " fill="#B39704" transform="translate(276,117)"/>
<path d="M0 0 C0.99 0.33 1.98 0.66 3 1 C2.67 3.64 2.34 6.28 2 9 C1.01 9.33 0.02 9.66 -1 10 C-1.34342449 11.33076989 -1.67619874 12.66431979 -2 14 C-2.99 14.66 -3.98 15.32 -5 16 C-5.495 16.66 -5.99 17.32 -6.5 18 C-8 20 -8 20 -11 22 C-11 21.34 -11 20.68 -11 20 C-14.00384054 20.6954344 -14.00384054 20.6954344 -17 22 C-17.96877057 24.03243548 -17.96877057 24.03243548 -18 26 C-19.98 25.67 -21.96 25.34 -24 25 C-22.33333333 23.33333333 -20.66666667 21.66666667 -19 20 C-18.46375 19.401875 -17.9275 18.80375 -17.375 18.1875 C-16 17 -16 17 -13 17 C-13 16.34 -13 15.68 -13 15 C-9.90992611 11.38019915 -7.82034262 9.41317222 -3 9 C-3.33 8.67 -3.66 8.34 -4 8 C-4.3125 5.625 -4.3125 5.625 -4 3 C-2.1875 1.125 -2.1875 1.125 0 0 Z " fill="#BE9703" transform="translate(304,146)"/>
<path d="M0 0 C0 3.99904969 -1.72586967 5.80200422 -4 9 C-3.34 9.33 -2.68 9.66 -2 10 C-1.67 9.34 -1.34 8.68 -1 8 C-0.21625 7.855625 0.5675 7.71125 1.375 7.5625 C4.29933803 6.93585614 5.04252428 6.14390198 7 4 C7.66 4 8.32 4 9 4 C7.5711472 7.08074603 5.83993361 9.6562904 3.8125 12.375 C-0.57801532 18.53647949 -3.76941801 25.18533769 -7 32 C-7.33 32 -7.66 32 -8 32 C-8.125 26.25 -8.125 26.25 -7 24 C-6.34 24 -5.68 24 -5 24 C-4.7834375 23.13375 -4.7834375 23.13375 -4.5625 22.25 C-4.19464875 20.778595 -3.77936781 19.31804597 -3.3125 17.875 C-3.209375 17.25625 -3.10625 16.6375 -3 16 C-3.66 15.34 -4.32 14.68 -5 14 C-5 13.01 -5 12.02 -5 11 C-5.66 11 -6.32 11 -7 11 C-5.5140084 6.40693504 -3.14985318 3.56430755 0 0 Z " fill="#B59E1C" transform="translate(78,52)"/>
<path d="M0 0 C0.66 0 1.32 0 2 0 C0.11648242 12.4537058 -4.22491966 23.07388878 -12 33 C-12.66 32.67 -13.32 32.34 -14 32 C-14 31.01 -14 30.02 -14 29 C-14.66 28.67 -15.32 28.34 -16 28 C-15.34 28 -14.68 28 -14 28 C-13.62875 26.63875 -13.62875 26.63875 -13.25 25.25 C-11.7154591 21.26019366 -9.83872404 18.91936202 -6 17 C-5.34444881 14.47266765 -5.34444881 14.47266765 -5 12 C-4.01 12 -3.02 12 -2 12 C-1.855625 10.948125 -1.71125 9.89625 -1.5625 8.8125 C-1.12473034 5.84539451 -0.62195134 2.93205634 0 0 Z " fill="#BDA120" transform="translate(247,100)"/>
<path d="M0 0 C1.09356161 3.28068482 0.85253791 3.83894084 0 7 C-0.27451901 10.85046036 -0.2773524 14.70329326 -0.3125 18.5625 C-0.34150391 19.59697266 -0.37050781 20.63144531 -0.40039062 21.69726562 C-0.51063401 35.24024161 5.08443007 44.50071288 13 55 C10 56 10 56 7.4375 55 C4.22350454 52.36287552 3.82881876 49.99339948 3 46 C1.02 46.495 1.02 46.495 -1 47 C-1.495 45.515 -1.495 45.515 -2 44 C-0.68 44 0.64 44 2 44 C1.360625 42.865625 0.72125 41.73125 0.0625 40.5625 C-5.10472866 28.8305004 -3.25968567 14.27349819 -1 2 C-0.67 1.34 -0.34 0.68 0 0 Z " fill="#C09C24" transform="translate(33,106)"/>
<path d="M0 0 C3.57575896 0 5.05295935 1.08840607 8 3 C7.773125 4.0725 7.54625 5.145 7.3125 6.25 C6.6358587 9.88124604 6.6358587 9.88124604 8.3125 12.125 C9.1478125 13.053125 9.1478125 13.053125 10 14 C10.33 14.86625 10.66 15.7325 11 16.625 C11.87583581 19.31559565 11.87583581 19.31559565 15 21 C15 22.32 15 23.64 15 25 C15.66 25 16.32 25 17 25 C17.33 26.98 17.66 28.96 18 31 C15.32925936 27.77549888 13.06227073 24.54037211 10.9375 20.9375 C6.74334852 14.2158686 1.47755379 8.675657 -4 3 C-2.68 2.67 -1.36 2.34 0 2 C0 1.34 0 0.68 0 0 Z " fill="#C3A20B" transform="translate(244,44)"/>
<path d="M0 0 C1.2065625 0.0309375 1.2065625 0.0309375 2.4375 0.0625 C2.7675 1.0525 3.0975 2.0425 3.4375 3.0625 C5.0875 3.3925 6.7375 3.7225 8.4375 4.0625 C8.56125 4.784375 8.685 5.50625 8.8125 6.25 C9.44992175 9.11839786 10.03765909 11.47279431 11.4375 14.0625 C13.7805809 15.18335312 13.7805809 15.18335312 16.4375 16.0625 C18.14044787 17.34917172 19.81696188 18.67346733 21.4375 20.0625 C21.1075 21.0525 20.7775 22.0425 20.4375 23.0625 C19.71046875 22.39154297 19.71046875 22.39154297 18.96875 21.70703125 C14.91459585 18.05049607 10.88311015 14.98812103 6.203125 12.1875 C3.93640118 10.74321579 2.14956243 9.1312421 0.4375 7.0625 C0.4375 6.4025 0.4375 5.7425 0.4375 5.0625 C-0.8825 4.7325 -2.2025 4.4025 -3.5625 4.0625 C-3.5625 0.08689024 -3.5625 0.08689024 0 0 Z " fill="#C2A218" transform="translate(217.5625,22.9375)"/>
<path d="M0 0 C4.31236921 -0.08789715 8.6245045 -0.1406923 12.9375 -0.1875 C14.14986328 -0.21263672 15.36222656 -0.23777344 16.61132812 -0.26367188 C22.96279005 -0.31530978 28.25570945 -0.02234958 34.19165039 2.30297852 C36.38050018 3.14666235 38.4148083 3.4264268 40.75 3.5625 C44.15687063 3.84889193 46.88745077 4.49392779 50 6 C50 6.66 50 7.32 50 8 C51.32 8.33 52.64 8.66 54 9 C50.68193542 10.65903229 47.43157784 8.76385474 44.0625 7.6875 C33.00215227 4.16144909 22.4145842 2.7012449 10.8125 2.375 C9.66974609 2.33632813 8.52699219 2.29765625 7.34960938 2.2578125 C4.56655555 2.16465589 1.78348978 2.07884151 -1 2 C-0.67 1.34 -0.34 0.68 0 0 Z " fill="#B9A331" transform="translate(156,17)"/>
<path d="M0 0 C0.99 0.66 1.98 1.32 3 2 C1.73046875 3.3671875 0.4609375 4.734375 -0.80859375 6.1015625 C-2.47748512 8.49023061 -2.47748512 8.49023061 -3 14 C8.22 14.33 19.44 14.66 31 15 C31 15.66 31 16.32 31 17 C26.23113513 17.04950115 21.46242041 17.08576738 16.69335938 17.10986328 C15.07158808 17.11991023 13.44983484 17.13355015 11.828125 17.15087891 C9.49474626 17.17518493 7.1616074 17.18649613 4.828125 17.1953125 C3.74352997 17.21079636 3.74352997 17.21079636 2.63702393 17.22659302 C-1.07798039 17.22741782 -3.84581045 17.06235471 -7 15 C-6.67 14.01 -6.34 13.02 -6 12 C-5.34 12 -4.68 12 -4 12 C-4 9.69 -4 7.38 -4 5 C-2.68 4.34 -1.36 3.68 0 3 C0 2.01 0 1.02 0 0 Z " fill="#C9A135" transform="translate(187,120)"/>
<path d="M0 0 C3 1 3 1 4.4375 3.75 C5 7 5 7 3.375 9.8125 C1 12 1 12 -1.125 12.4375 C-1.74375 12.623125 -2.3625 12.80875 -3 13 C-3.67939174 14.99571323 -4.34561559 16.99594773 -5 19 C-7.125 20.375 -7.125 20.375 -9 21 C-9.99 20.34 -10.98 19.68 -12 19 C-11 17 -11 17 -8 15 C-7.67 14.01 -7.34 13.02 -7 12 C-6.34 11.67 -5.68 11.34 -5 11 C-3.90480507 8.69219431 -3.90480507 8.69219431 -2.9375 6 C-1.08883827 1.08883827 -1.08883827 1.08883827 0 0 Z " fill="#B69704" transform="translate(256,185)"/>
<path d="M0 0 C4.84286815 1.49359485 9.31350896 3.45033567 13.875 5.625 C14.56335938 5.94984375 15.25171875 6.2746875 15.9609375 6.609375 C17.64205219 7.40323472 19.32122921 8.20119558 21 9 C19.68 9.33 18.36 9.66 17 10 C17 10.66 17 11.32 17 12 C15.68 12 14.36 12 13 12 C14.36983503 15.16115776 14.9890638 15.9927092 18 18 C12.65155992 17.46515599 8.64203897 15.53309233 4 13 C4 12.67 4 12.34 4 12 C4.78375 11.938125 5.5675 11.87625 6.375 11.8125 C7.674375 11.4103125 7.674375 11.4103125 9 11 C10.37466625 8.52363988 10.37466625 8.52363988 11 6 C9.10820797 5.3185177 9.10820797 5.3185177 7 5 C6.34 5.66 5.68 6.32 5 7 C5 6.34 5 5.68 5 5 C4.01 5 3.02 5 2 5 C1.34 3.35 0.68 1.7 0 0 Z " fill="#B79B13" transform="translate(112,215)"/>
<path d="M0 0 C1.32 0.66 2.64 1.32 4 2 C-7.72491684 12.00752396 -25.83356454 16.26149027 -41 16 C-39 14 -39 14 -36.6171875 13.8046875 C-35.71226562 13.82789063 -34.80734375 13.85109375 -33.875 13.875 C-32.50988281 13.90207031 -32.50988281 13.90207031 -31.1171875 13.9296875 C-30.41851562 13.95289063 -29.71984375 13.97609375 -29 14 C-29 13.34 -29 12.68 -29 12 C-26.03 12 -23.06 12 -20 12 C-20 11.34 -20 10.68 -20 10 C-17.03 9.34 -14.06 8.68 -11 8 C-10.67 6.68 -10.34 5.36 -10 4 C-6.33694766 3.25073929 -3.57644848 2.7619986 0 4 C0 2.68 0 1.36 0 0 Z " fill="#BA9E28" transform="translate(220,223)"/>
<path d="M0 0 C0 0.99 0 1.98 0 3 C4.22100707 3.49915468 8.44220893 3.99633819 12.6640625 4.48828125 C15.01553837 4.76307058 17.36348912 5.04766212 19.7109375 5.35546875 C25.80652675 6.13724507 31.86124328 6.0934836 38 6 C38.495 6.99 38.495 6.99 39 8 C22.03650037 8.43853671 6.04186249 8.12507477 -10 2 C-10 1.67 -10 1.34 -10 1 C-3.375 -1.125 -3.375 -1.125 0 0 Z " fill="#C0992A" transform="translate(140,232)"/>
<path d="M0 0 C7.79822741 10.39763655 6.12808858 24.60387176 6 37 C5.01 36.34 4.02 35.68 3 35 C2.65942383 32.47802734 2.65942383 32.47802734 2.70703125 29.3359375 C2.71669922 28.21445313 2.72636719 27.09296875 2.73632812 25.9375 C2.76146484 24.761875 2.78660156 23.58625 2.8125 22.375 C2.82603516 21.19164063 2.83957031 20.00828125 2.85351562 18.7890625 C2.88896084 15.85892461 2.93837231 12.92968541 3 10 C2.34 10 1.68 10 1 10 C0.67 6.7 0.34 3.4 0 0 Z " fill="#D4DEC7" transform="translate(0,65)"/>
<path d="M0 0 C0.33 0 0.66 0 1 0 C0.98952637 0.65371582 0.97905273 1.30743164 0.96826172 1.98095703 C0.7104484 20.54025286 2.51367114 37.01112799 7 55 C4.36170741 53.68085371 4.01736771 52.76142665 3 50 C2.9222654 47.66796188 2.91032272 45.33160941 3 43 C2.34 43 1.68 43 1 43 C0.77213542 40.94921875 0.54427083 38.8984375 0.31640625 36.84765625 C0.18113386 34.98859771 0.18113386 34.98859771 -1 34 C-1.10081087 31.64768301 -1.13972939 29.32538053 -1.1328125 26.97265625 C-1.13376923 26.26854111 -1.13472595 25.56442596 -1.13571167 24.838974 C-1.13639341 23.34683137 -1.13453952 21.85468579 -1.13037109 20.36254883 C-1.12503063 18.07561582 -1.1303121 15.78887992 -1.13671875 13.50195312 C-1.13605781 12.05468707 -1.13477632 10.60742113 -1.1328125 9.16015625 C-1.13483673 8.47365494 -1.13686096 7.78715363 -1.13894653 7.07984924 C-1.11495764 2.22991527 -1.11495764 2.22991527 0 0 Z " fill="#B89F30" transform="translate(62,108)"/>
<path d="M0 0 C2.64 0 5.28 0 8 0 C-1.64973969 8.17249559 -16.72224606 10.46137697 -29 10 C-29 9.67 -29 9.34 -29 9 C-27.71802734 8.81824219 -27.71802734 8.81824219 -26.41015625 8.6328125 C-25.30542969 8.46523437 -24.20070312 8.29765625 -23.0625 8.125 C-21.96035156 7.96257812 -20.85820312 7.80015625 -19.72265625 7.6328125 C-18.37494141 7.31957031 -18.37494141 7.31957031 -17 7 C-16.67 6.34 -16.34 5.68 -16 5 C-13.30202898 4.36139231 -10.66633377 3.83174758 -7.9375 3.375 C-7.17888672 3.2409375 -6.42027344 3.106875 -5.63867188 2.96875 C-3.76047742 2.63799878 -1.88039662 2.31799266 0 2 C0 1.34 0 0.68 0 0 Z " fill="#C39E24" transform="translate(200,156)"/>
<path d="M0 0 C0.66 0 1.32 0 2 0 C3.75747614 4.50353262 4.19294408 8.17639811 4 13 C4.66 13 5.32 13 6 13 C6.2475 13.94875 6.495 14.8975 6.75 15.875 C7.6857077 19.08693191 7.6857077 19.08693191 10.125 20.375 C11.053125 20.684375 11.053125 20.684375 12 21 C12 21.66 12 22.32 12 23 C12.66 23 13.32 23 14 23 C14 24.32 14 25.64 14 27 C15.32 27 16.64 27 18 27 C18.33 28.98 18.66 30.96 19 33 C9.61586821 28.07333081 4.73042729 18.27106318 0.8125 8.82421875 C-0.06971846 5.75766131 -0.150059 3.1746857 0 0 Z " fill="#C39D32" transform="translate(23,136)"/>
<path d="M0 0 C0.495 1.98 0.495 1.98 1 4 C0.34 4 -0.32 4 -1 4 C-1.268125 4.94875 -1.53625 5.8975 -1.8125 6.875 C-3 10 -3 10 -6 12 C-6 11.34 -6 10.68 -6 10 C-9.63 10.33 -13.26 10.66 -17 11 C-17.33 11.99 -17.66 12.98 -18 14 C-19.98723268 14.70381157 -21.98777953 15.3711811 -24 16 C-24.33 16.66 -24.66 17.32 -25 18 C-25.66 18 -26.32 18 -27 18 C-27.33 18.99 -27.66 19.98 -28 21 C-29.65 21.33 -31.3 21.66 -33 22 C-26.48048366 12.87267713 -17.84147731 9.5361016 -7.1015625 7.25 C-3.15924613 5.66115713 -2.0174813 3.657306 0 0 Z " fill="#B89A2C" transform="translate(70,63)"/>
<path d="M0 0 C3 3.625 3 3.625 3 7 C2.360625 7.103125 1.72125 7.20625 1.0625 7.3125 C0.381875 7.539375 -0.29875 7.76625 -1 8 C-1.33 8.99 -1.66 9.98 -2 11 C-3.65 11 -5.3 11 -7 11 C-7.33 11.99 -7.66 12.98 -8 14 C-8.99 13.34 -9.98 12.68 -11 12 C-10.05016642 10.49460339 -9.08988109 8.99579653 -8.125 7.5 C-7.32449219 6.24703125 -7.32449219 6.24703125 -6.5078125 4.96875 C-6.01023437 4.3190625 -5.51265625 3.669375 -5 3 C-4.34 3 -3.68 3 -3 3 C-2.67 2.34 -2.34 1.68 -2 1 C-1.34 0.67 -0.68 0.34 0 0 Z " fill="#B99B03" transform="translate(84,49)"/>
<path d="M0 0 C0 3.75629413 -0.73945568 5.00863714 -3 8 C-5.37290467 9.54936717 -7.62545998 10.89228381 -10.125 12.1875 C-14.78735316 14.31224789 -14.78735316 14.31224789 -18 18 C-19.8125 18.81640625 -19.8125 18.81640625 -22 19.5625 C-24.73933017 20.39037842 -24.73933017 20.39037842 -27 22 C-28.66617115 22.04063832 -30.33388095 22.042721 -32 22 C-29.68548866 19.68548866 -27.59716456 18.80656793 -24.625 17.4375 C-15.49004659 12.95785938 -7.67957534 6.61296765 0 0 Z " fill="#AE9422" transform="translate(242,200)"/>
<path d="M0 0 C0 0.66 0 1.32 0 2 C1.32 2 2.64 2 4 2 C4.5345256 3.24420647 5.05208611 4.49570936 5.5625 5.75 C5.85253906 6.44609375 6.14257812 7.1421875 6.44140625 7.859375 C7.07831803 10.30012784 6.80248831 11.6403655 6 14 C5.484375 12.906875 4.96875 11.81375 4.4375 10.6875 C2.55437723 7.45088273 0.78553306 5.78270609 -2.8515625 4.48828125 C-7.17850337 3.5048856 -11.57807631 3.23189112 -16 3 C-13.02048117 1.01365411 -11.96868376 0.68517525 -8.5625 0.375 C-7.80066406 0.30023438 -7.03882813 0.22546875 -6.25390625 0.1484375 C-4.17319114 0.011406 -2.08522253 0 0 0 Z " fill="#CCA227" transform="translate(146,116)"/>
<path d="M0 0 C0.66 0 1.32 0 2 0 C0.56416379 4.39525417 -1.63777968 7.17206605 -4.75 10.5625 C-5.59046875 11.49191406 -6.4309375 12.42132813 -7.296875 13.37890625 C-14.12518629 20 -14.12518629 20 -18 20 C-18 19.01 -18 18.02 -18 17 C-16.68 17 -15.36 17 -14 17 C-14.33 15.68 -14.66 14.36 -15 13 C-14.21625 12.938125 -13.4325 12.87625 -12.625 12.8125 C-11.325625 12.4103125 -11.325625 12.4103125 -10 12 C-8.62533375 9.52363988 -8.62533375 9.52363988 -8 7 C-6.68 7 -5.36 7 -4 7 C-3.67 5.35 -3.34 3.7 -3 2 C-2.34 2 -1.68 2 -1 2 C-0.67 1.34 -0.34 0.68 0 0 Z " fill="#BA9E22" transform="translate(306,153)"/>
<path d="M0 0 C2.375 0.3125 2.375 0.3125 5 1 C7.29013653 4.4352048 7.17842973 5.985331 7 10 C7.639375 10.2475 8.27875 10.495 8.9375 10.75 C11 12 11 12 11.75 14.125 C11.87375 15.053125 11.87375 15.053125 12 16 C3.26470588 9.52941176 3.26470588 9.52941176 2 7 C1.01 6.67 0.02 6.34 -1 6 C-0.67 4.02 -0.34 2.04 0 0 Z " fill="#B6A403" transform="translate(299,90)"/>
<path d="M0 0 C1 2 1 2 0.546875 3.91015625 C0.28390625 4.62042969 0.0209375 5.33070313 -0.25 6.0625 C-0.50265625 6.77535156 -0.7553125 7.48820313 -1.015625 8.22265625 C-2 10 -2 10 -5 11 C-5.34342449 12.33076989 -5.67619874 13.66431979 -6 15 C-6.99 15.66 -7.98 16.32 -9 17 C-9.66 15.68 -10.32 14.36 -11 13 C-10.06027344 11.96939453 -10.06027344 11.96939453 -9.1015625 10.91796875 C-8.28429687 10.01691406 -7.46703125 9.11585938 -6.625 8.1875 C-5.81289062 7.29417969 -5.00078125 6.40085938 -4.1640625 5.48046875 C-1.90927093 3.00367326 -1.90927093 3.00367326 0 0 Z " fill="#AB940D" transform="translate(254,186)"/>
<path d="M0 0 C3 2 3 2 4 5.0625 C4.33 6.031875 4.66 7.00125 5 8 C5.99 8.33 6.98 8.66 8 9 C7.79375 9.721875 7.5875 10.44375 7.375 11.1875 C6.93675713 14.47432151 7.7361135 15.99826957 9 19 C8.67 19.99 8.34 20.98 8 22 C7.03654556 20.12762629 6.07946898 18.2519701 5.125 16.375 C4.59132813 15.33085938 4.05765625 14.28671875 3.5078125 13.2109375 C1.35977893 8.63662768 0 5.08303476 0 0 Z " fill="#CCA415" transform="translate(88,103)"/>
<path d="M0 0 C0.75410156 0.19529297 1.50820312 0.39058594 2.28515625 0.59179688 C4.15008306 1.07573358 6.01276459 1.56830769 7.875 2.0625 C7.875 2.7225 7.875 3.3825 7.875 4.0625 C7.215 4.0625 6.555 4.0625 5.875 4.0625 C5.545 5.0525 5.215 6.0425 4.875 7.0625 C2.4 6.0725 2.4 6.0725 -0.125 5.0625 C-0.125 4.0725 -0.125 3.0825 -0.125 2.0625 C-1.775 2.0625 -3.425 2.0625 -5.125 2.0625 C-5.125 1.4025 -5.125 0.7425 -5.125 0.0625 C-6.445 0.3925 -7.765 0.7225 -9.125 1.0625 C-9.455 0.4025 -9.785 -0.2575 -10.125 -0.9375 C-6.79929578 -2.60035211 -3.44139055 -0.91829852 0 0 Z " fill="#BD9E0B" transform="translate(142.125,226.9375)"/>
<path d="M0 0 C2.31 0 4.62 0 7 0 C6.67 0.99 6.34 1.98 6 3 C5.34 3 4.68 3 4 3 C4 3.66 4 4.32 4 5 C4.66 5.33 5.32 5.66 6 6 C7.61037909 11.18899929 8.22541675 15.58999807 8 21 C6.20622711 17.59600308 4.81669572 14.09002588 3.4375 10.5 C2.78587891 8.81390625 2.78587891 8.81390625 2.12109375 7.09375 C1.26195763 4.72289352 0.53609225 2.45759142 0 0 Z " fill="#B9A024" transform="translate(263,77)"/>
<path d="M0 0 C0.66 0.33 1.32 0.66 2 1 C1.814375 1.78375 1.62875 2.5675 1.4375 3.375 C0.74037734 5.97089775 0.74037734 5.97089775 2 8 C2.99 8.33 3.98 8.66 5 9 C2.625 10.5625 2.625 10.5625 0 12 C-0.66 11.67 -1.32 11.34 -2 11 C-1.67 10.01 -1.34 9.02 -1 8 C-3.84826598 5.63307034 -3.84826598 5.63307034 -7.1875 6.375 C-8.115625 6.58125 -9.04375 6.7875 -10 7 C-7.01767477 3.67356033 -4.13629913 1.70847138 0 0 Z " fill="#B79B14" transform="translate(116,21)"/>
<path d="M0 0 C4.21477565 4.07881515 8.10803395 8.41690528 12.01171875 12.79296875 C13.30508896 14.2286351 14.6336281 15.6336281 16 17 C15.01 17.66 14.02 18.32 13 19 C9.6443794 16.7629196 9.80721959 16.57482962 9 13 C8.34 12.67 7.68 12.34 7 12 C6.67 11.01 6.34 10.02 6 9 C3.96183917 6.57361806 1.87793751 5.29010992 -1 4 C-0.67 2.68 -0.34 1.36 0 0 Z " fill="#AE921F" transform="translate(82,187)"/>
<path d="M0 0 C1.98 0 3.96 0 6 0 C7.23076923 6.4 7.23076923 6.4 6.0625 9.4375 C5.711875 9.953125 5.36125 10.46875 5 11 C2.525 10.01 2.525 10.01 0 9 C1 6 1 6 2 5 C2 3.68 2 2.36 2 1 C1.34 0.67 0.68 0.34 0 0 Z " fill="#C7970F" transform="translate(240,85)"/>
<path d="M0 0 C1.5625 1.8125 1.5625 1.8125 3 4 C2.67 4.99 2.34 5.98 2 7 C0.68 7 -0.64 7 -2 7 C-3.38232443 8.62626404 -4.71937515 10.2925002 -6 12 C-6.66 12 -7.32 12 -8 12 C-8 12.66 -8 13.32 -8 14 C-10.25 15.6875 -10.25 15.6875 -13 17 C-15.171875 16.58203125 -15.171875 16.58203125 -17 16 C-16.14728516 15.48953125 -16.14728516 15.48953125 -15.27734375 14.96875 C-9.14617163 11.12013444 -3.30923544 6.61847087 0 0 Z " fill="#B89A23" transform="translate(299,149)"/>
<path d="M0 0 C1.67542976 0.28604898 3.34385343 0.61781233 5 1 C5 3.97 5 6.94 5 10 C4.21625 9.67 3.4325 9.34 2.625 9 C0.15667503 7.88133489 0.15667503 7.88133489 -2 8 C-1.125 1.125 -1.125 1.125 0 0 Z " fill="#BA9A04" transform="translate(272,154)"/>
<path d="M0 0 C0.33 0 0.66 0 1 0 C1.20160136 5.93380001 0.55584985 11.06373092 -0.875 16.8125 C-1.04902344 17.56208984 -1.22304688 18.31167969 -1.40234375 19.08398438 C-2.2326418 22.52510851 -3.01893756 25.02840634 -5 28 C-5.08187055 26.43839515 -5.13958275 24.87551517 -5.1875 23.3125 C-5.22230469 22.44238281 -5.25710938 21.57226562 -5.29296875 20.67578125 C-4.93966673 17.44895617 -3.66454569 15.76314584 -2 13 C-1.21826605 9.66017019 -1.21826605 9.66017019 -0.8125 6.1875 C-0.65394531 5.02605469 -0.49539063 3.86460937 -0.33203125 2.66796875 C-0.22246094 1.78753906 -0.11289062 0.90710938 0 0 Z " fill="#B3A230" transform="translate(282,136)"/>
<path d="M0 0 C2.375 0.3125 2.375 0.3125 5 1 C7 4 7 4 7.9375 6.5625 C8.87138318 9.30504053 8.87138318 9.30504053 12 11 C12 12.32 12 13.64 12 15 C12.66 15 13.32 15 14 15 C14.33 16.98 14.66 18.96 15 21 C11.51759836 16.78446117 8.65108872 12.36267083 5.78125 7.71875 C4.00078998 5.00120576 2.06800848 2.50337868 0 0 Z " fill="#BBA22E" transform="translate(247,54)"/>
<path d="M0 0 C0.625 1.8125 0.625 1.8125 1 4 C0.01 5.485 0.01 5.485 -1 7 C-1.33 7 -1.66 7 -2 7 C-2.33 7.66 -2.66 8.32 -3 9 C-6.60654039 6.59563974 -6.85452932 5.05320393 -8 1 C-5.36 0.67 -2.72 0.34 0 0 Z " fill="#CF9A06" transform="translate(102,207)"/>
<path d="M0 0 C1.32 0.66 2.64 1.32 4 2 C-0.83323235 6.14277059 -4.53597935 8.36937261 -11 8 C-10.67 6.68 -10.34 5.36 -10 4 C-6.33694766 3.25073929 -3.57644848 2.7619986 0 4 C0 2.68 0 1.36 0 0 Z " fill="#B2991C" transform="translate(220,223)"/>
<path d="M0 0 C2.05411219 2.59466802 3.92577727 5.30329961 5.75 8.0625 C6.19859375 8.73410156 6.6471875 9.40570313 7.109375 10.09765625 C8 12 8 12 7 15 C6.67 14.34 6.34 13.68 6 13 C4.68 13.33 3.36 13.66 2 14 C1.66179834 12.4176994 1.32964061 10.83410625 1 9.25 C0.814375 8.36828125 0.62875 7.4865625 0.4375 6.578125 C0 4 0 4 0 0 Z " fill="#B89B07" transform="translate(73,172)"/>
<path d="M0 0 C0.78375 0.04125 1.5675 0.0825 2.375 0.125 C2.705 1.115 3.035 2.105 3.375 3.125 C5.39008358 3.85823796 5.39008358 3.85823796 7.375 4.125 C6.385 4.125 5.395 4.125 4.375 4.125 C4.375 5.115 4.375 6.105 4.375 7.125 C-2.375 5.5 -2.375 5.5 -4.625 2.125 C-2.625 0.125 -2.625 0.125 0 0 Z " fill="#C39C01" transform="translate(217.625,22.875)"/>
<path d="M0 0 C3.10652645 0.3358407 4.60414303 0.59049279 6.8125 2.875 C8 5 8 5 8 8 C7.01 7.67 6.02 7.34 5 7 C5 6.34 5 5.68 5 5 C4.34 5 3.68 5 3 5 C2.67 5.66 2.34 6.32 2 7 C0.4375 5.75 0.4375 5.75 -1 4 C-0.6875 1.8125 -0.6875 1.8125 0 0 Z " fill="#BAA301" transform="translate(251,50)"/>
<path d="M0 0 C2 0 2 0 4.625 2.5 C5.40875 3.325 6.1925 4.15 7 5 C7.33 4.34 7.66 3.68 8 3 C10 5 10 5 10 7 C10.33 7.99 10.66 8.98 11 10 C6.32894208 8.44298069 2.91294315 5.91552627 -1 3 C-0.67 2.01 -0.34 1.02 0 0 Z " fill="#BE9F23" transform="translate(118,146)"/>
<path d="M0 0 C0 0.99 0 1.98 0 3 C1.1446875 3.185625 1.1446875 3.185625 2.3125 3.375 C5 4 5 4 8 6 C1.56318772 5.48914188 -3.95942424 4.27057103 -10 2 C-10 1.67 -10 1.34 -10 1 C-3.375 -1.125 -3.375 -1.125 0 0 Z " fill="#BA9B21" transform="translate(140,232)"/>
<path d="M0 0 C4.29 2.31 8.58 4.62 13 7 C13 7.33 13 7.66 13 8 C10.69 8.33 8.38 8.66 6 9 C5.67 8.01 5.34 7.02 5 6 C3.68 6 2.36 6 1 6 C0.67 4.02 0.34 2.04 0 0 Z " fill="#BD9518" transform="translate(47,161)"/>
<path d="M0 0 C0.99 0.33 1.98 0.66 3 1 C3 1.66 3 2.32 3 3 C3.66 3 4.32 3 5 3 C5 4.32 5 5.64 5 7 C6.32 7 7.64 7 9 7 C9.33 8.98 9.66 10.96 10 13 C5.84938175 10.45302971 2.6732842 8.11274493 0 4 C0 2.68 0 1.36 0 0 Z " fill="#CCA320" transform="translate(32,156)"/>
<path d="M0 0 C6.93 0 13.86 0 21 0 C21 0.33 21 0.66 21 1 C19.25021843 1.16894443 17.50016388 1.33506309 15.75 1.5 C14.77546875 1.5928125 13.8009375 1.685625 12.796875 1.78125 C9.19436777 2.06301034 5.61268436 2 2 2 C1.67 4.97 1.34 7.94 1 11 C0.67 11 0.34 11 0 11 C0 7.37 0 3.74 0 0 Z " fill="#C49D0D" transform="translate(87,85)"/>
<path d="M0 0 C2.54232342 -0.08152344 5.08199202 -0.14073716 7.625 -0.1875 C8.33785156 -0.21263672 9.05070313 -0.23777344 9.78515625 -0.26367188 C14.62276416 -0.33024446 17.74738338 0.44440547 22 3 C20.68 3.99 19.36 4.98 18 6 C18 5.34 18 4.68 18 4 C17.34 4 16.68 4 16 4 C16 3.34 16 2.68 16 2 C10.39 2 4.78 2 -1 2 C-0.67 1.34 -0.34 0.68 0 0 Z " fill="#B99A15" transform="translate(177,11)"/>
<path d="M0 0 C0.33 0 0.66 0 1 0 C1.33 8.58 1.66 17.16 2 26 C1.01 25.67 0.02 25.34 -1 25 C-0.67 16.75 -0.34 8.5 0 0 Z " fill="#B69B22" transform="translate(274,116)"/>
<path d="M0 0 C0.33 0.66 0.66 1.32 1 2 C2.65 2 4.3 2 6 2 C6 2.33 6 2.66 6 3 C4.98679688 3.09087891 4.98679688 3.09087891 3.953125 3.18359375 C3.06109375 3.26738281 2.1690625 3.35117188 1.25 3.4375 C0.36828125 3.51871094 -0.5134375 3.59992188 -1.421875 3.68359375 C-3.91936835 3.92861625 -3.91936835 3.92861625 -5.96875 4.53125 C-8.59915704 5.13826701 -11.05408958 5.09459417 -13.75 5.0625 C-14.73484375 5.05347656 -15.7196875 5.04445312 -16.734375 5.03515625 C-17.48203125 5.02355469 -18.2296875 5.01195312 -19 5 C-19 4.67 -19 4.34 -19 4 C-18.07380859 3.94392578 -18.07380859 3.94392578 -17.12890625 3.88671875 C-11.0232776 3.41276584 -5.71266953 2.19399627 0 0 Z " fill="#C5960C" transform="translate(185,234)"/>
<path d="M0 0 C0.66 0.33 1.32 0.66 2 1 C0.5489926 2.83913695 -0.91101659 4.6711753 -2.375 6.5 C-3.18710938 7.5209375 -3.99921875 8.541875 -4.8359375 9.59375 C-5.55007812 10.3878125 -6.26421875 11.181875 -7 12 C-7.66 12 -8.32 12 -9 12 C-9 11.34 -9 10.68 -9 10 C-8.34 10 -7.68 10 -7 10 C-6.8453125 8.329375 -6.8453125 8.329375 -6.6875 6.625 C-6.460625 5.42875 -6.23375 4.2325 -6 3 C-5.01 2.34 -4.02 1.68 -3 1 C-3 1.66 -3 2.32 -3 3 C-2.34 3 -1.68 3 -1 3 C-0.67 2.01 -0.34 1.02 0 0 Z " fill="#B9A11C" transform="translate(258,194)"/>
<path d="M0 0 C6.00738007 2.11070111 6.00738007 2.11070111 8 5 C8.6875 8.6875 8.6875 8.6875 9 12 C5.74483572 8.83525695 2.67991207 5.67247209 0 2 C0 1.34 0 0.68 0 0 Z " fill="#C9A018" transform="translate(73,189)"/>
<path d="M0 0 C2.31 0 4.62 0 7 0 C4.00829323 2.99170677 0.63047082 2.68606576 -3.46875 3.14453125 C-6.25242579 3.76018632 -6.25242579 3.76018632 -7.34375 6.57421875 C-7.5603125 7.37472656 -7.776875 8.17523438 -8 9 C-8.93423645 5.98968256 -9.04449911 5.13349732 -8 2 C-5.36 2 -2.72 2 0 2 C0 1.34 0 0.68 0 0 Z " fill="#BA992C" transform="translate(276,175)"/>
<path d="M0 0 C0.33 0.66 0.66 1.32 1 2 C1.66 2.33 2.32 2.66 3 3 C2.34 5.31 1.68 7.62 1 10 C0.34 10 -0.32 10 -1 10 C-0.690625 10.928125 -0.690625 10.928125 -0.375 11.875 C-0.25125 12.57625 -0.1275 13.2775 0 14 C-0.66 14.66 -1.32 15.32 -2 16 C-2.66 16 -3.32 16 -4 16 C-2.68 10.72 -1.36 5.44 0 0 Z " fill="#B79D20" transform="translate(304,133)"/>
<path d="M0 0 C0.33 0 0.66 0 1 0 C1.33 5.28 1.66 10.56 2 16 C1.34 16 0.68 16 0 16 C0 17.98 0 19.96 0 22 C-0.33 21.34 -0.66 20.68 -1 20 C-1.66 19.67 -2.32 19.34 -3 19 C-2.5359375 17.081875 -2.5359375 17.081875 -2.0625 15.125 C-0.93885167 10.11241278 -0.40577419 5.11489044 0 0 Z " fill="#B1A013" transform="translate(282,120)"/>
<path d="M0 0 C0 0.33 0 0.66 0 1 C-1.21558594 1.20496094 -2.43117187 1.40992188 -3.68359375 1.62109375 C-5.26826514 1.89301961 -6.85289863 2.16516643 -8.4375 2.4375 C-9.64116211 2.63956055 -9.64116211 2.63956055 -10.86914062 2.84570312 C-14.75471303 3.20267224 -14.75471303 3.20267224 -18 5 C-20.33297433 5.04092937 -22.66705225 5.04241723 -25 5 C-17.85408497 0.23605665 -8.39894598 -0.42706505 0 0 Z " fill="#B1942A" transform="translate(158,10)"/>
<path d="M0 0 C2.64 0 5.28 0 8 0 C4.63263969 2.82858266 1.12548042 4.4998253 -3 6 C-3.99 5.67 -4.98 5.34 -6 5 C-5.67 4.34 -5.34 3.68 -5 3 C-2.4375 2.375 -2.4375 2.375 0 2 C0 1.34 0 0.68 0 0 Z " fill="#BAA12D" transform="translate(200,156)"/>
<path d="M0 0 C0.33 0 0.66 0 1 0 C1.22262303 6.7281627 0.95021536 12.53991163 -1 19 C-1.33 19 -1.66 19 -2 19 C-2.21432579 12.35590042 -1.51233701 6.46794133 0 0 Z " fill="#AC982A" transform="translate(55,98)"/>
<path d="M0 0 C4.42228774 3.60334557 7.06376171 8.70407883 9 14 C8.67 14.99 8.34 15.98 8 17 C4.91261346 14.53009077 3.71616245 12.59094746 2.875 8.8125 C2.58625 7.554375 2.2975 6.29625 2 5 C1.34 4.67 0.68 4.34 0 4 C0 2.68 0 1.36 0 0 Z " fill="#B4A62A" transform="translate(302,87)"/>
<path d="M0 0 C0.33 0.66 0.66 1.32 1 2 C0.67 2.99 0.34 3.98 0 5 C-0.99 5 -1.98 5 -3 5 C-3.33 6.65 -3.66 8.3 -4 10 C-4.99 10.33 -5.98 10.66 -7 11 C-7 11.99 -7 12.98 -7 14 C-7.66 14 -8.32 14 -9 14 C-7.64002446 7.95566426 -4.14348206 4.36505864 0 0 Z " fill="#B79D25" transform="translate(36,85)"/>
<path d="M0 0 C2.64 0.33 5.28 0.66 8 1 C8 1.66 8 2.32 8 3 C9.98 3 11.96 3 14 3 C14.33 4.32 14.66 5.64 15 7 C14.29488281 6.69320312 13.58976562 6.38640625 12.86328125 6.0703125 C9.95734427 4.98405502 7.24245848 4.3902942 4.1875 3.875 C3.21167969 3.70742187 2.23585938 3.53984375 1.23046875 3.3671875 C0.49441406 3.24601562 -0.24164063 3.12484375 -1 3 C-0.67 2.01 -0.34 1.02 0 0 Z " fill="#C0A620" transform="translate(274,80)"/>
<path d="M0 0 C0.33 1.32 0.66 2.64 1 4 C0.34 4 -0.32 4 -1 4 C-1.268125 4.94875 -1.53625 5.8975 -1.8125 6.875 C-3 10 -3 10 -6 12 C-6 11.34 -6 10.68 -6 10 C-7.65 10 -9.3 10 -11 10 C-8 8 -8 8 -5.5 6.6875 C-2.67694899 4.78194057 -1.54051473 2.99994973 0 0 Z " fill="#B69B1B" transform="translate(70,63)"/>
<path d="M0 0 C0.66 0.37125 1.32 0.7425 2 1.125 C3.32 1.125 4.64 1.125 6 1.125 C6 2.115 6 3.105 6 4.125 C-1.38461538 4.49423077 -1.38461538 4.49423077 -4.5 2.625 C-4.995 2.13 -5.49 1.635 -6 1.125 C-2.52892562 -1.10640496 -2.52892562 -1.10640496 0 0 Z " fill="#CC930E" transform="translate(157,160.875)"/>
<path d="M0 0 C6.30267439 0.36776168 11.33251843 1.16625922 17 4 C17 4.33 17 4.66 17 5 C10.80481527 4.58411954 5.73310689 3.39748106 0 1 C0 0.67 0 0.34 0 0 Z " fill="#BC9A2A" transform="translate(138,160)"/>
<path d="M0 0 C0.66 0 1.32 0 2 0 C2.12375 1.0725 2.2475 2.145 2.375 3.25 C2.74905526 6.84214766 2.74905526 6.84214766 4.1875 9.0625 C5 11 5 11 4.125 14.25 C3.75375 15.1575 3.3825 16.065 3 17 C2.67 17 2.34 17 2 17 C1.66151348 15.10507994 1.32943089 13.20901534 1 11.3125 C0.814375 10.25675781 0.62875 9.20101562 0.4375 8.11328125 C0.04931926 5.35095938 -0.08259976 2.78257957 0 0 Z " fill="#B7A225" transform="translate(271,98)"/>
<path d="M0 0 C4.455 2.97 4.455 2.97 9 6 C7.02 6.99 7.02 6.99 5 8 C2.75 7.125 2.75 7.125 1 6 C1 5.34 1 4.68 1 4 C0.34 3.67 -0.32 3.34 -1 3 C-0.67 2.01 -0.34 1.02 0 0 Z " fill="#B59C19" transform="translate(103,208)"/>
<path d="M0 0 C2 1 2 1 3 3 C2.66015625 4.9453125 2.66015625 4.9453125 2.0625 7.125 C1.86785156 7.84945312 1.67320313 8.57390625 1.47265625 9.3203125 C1.31667969 9.87460938 1.16070312 10.42890625 1 11 C0.34 10.67 -0.32 10.34 -1 10 C-1.02689216 8.52093108 -1.04634621 7.04172517 -1.0625 5.5625 C-1.07410156 4.73878906 -1.08570313 3.91507812 -1.09765625 3.06640625 C-1 1 -1 1 0 0 Z " fill="#B69201" transform="translate(56,108)"/>
<path d="M0 0 C2.475 0.495 2.475 0.495 5 1 C5.10251672 6.12583611 5.03590199 10.94997778 4 16 C3.67 16 3.34 16 3 16 C2.92652344 14.64455078 2.92652344 14.64455078 2.8515625 13.26171875 C2.77679688 12.08222656 2.70203125 10.90273437 2.625 9.6875 C2.55539063 8.51574219 2.48578125 7.34398438 2.4140625 6.13671875 C2.21386253 2.84300113 2.21386253 2.84300113 0 0 Z " fill="#B6A627" transform="translate(246,84)"/>
<path d="M0 0 C3.99012371 0.55989303 6.5255052 1.75669768 9.8125 4.0625 C10.60269531 4.61035156 11.39289063 5.15820312 12.20703125 5.72265625 C12.79871094 6.14417969 13.39039063 6.56570312 14 7 C8.95262918 7 5.86531036 5.79006598 2.125 2.375 C1.42375 1.59125 0.7225 0.8075 0 0 Z " fill="#B39E27" transform="translate(281,73)"/>
<path d="M0 0 C2.625 -0.5 2.625 -0.5 6 0 C9.64303494 3.29129363 12.16431411 7.10527608 12.875 12 C12.936875 13.485 12.936875 13.485 13 15 C11 12 11 12 9.6875 9.0625 C7.28957282 4.71070623 4.06533441 2.71022294 0 0 Z " fill="#BFA133" transform="translate(206,119)"/>
<path d="M0 0 C0.33 1.32 0.66 2.64 1 4 C0.01 4 -0.98 4 -2 4 C-2 5.98 -2 7.96 -2 10 C-3.32 10.33 -4.64 10.66 -6 11 C-6.125 8.125 -6.125 8.125 -6 5 C-5.34 4.34 -4.68 3.68 -4 3 C-2.68 3 -1.36 3 0 3 C0 2.01 0 1.02 0 0 Z " fill="#C3990C" transform="translate(244,108)"/>
<path d="M0 0 C4.52615993 3.67832017 8.39424999 7.41086363 12 12 C11.67 12.66 11.34 13.32 11 14 C10.2575 13.05125 9.515 12.1025 8.75 11.125 C7.09734032 9.11184515 6.21017373 8.09607942 3.8125 7 C2 6 2 6 0.75 2.875 C0.5025 1.92625 0.255 0.9775 0 0 Z " fill="#ABA129" transform="translate(249,43)"/>
<path d="M0 0 C-0.99 0.66 -1.98 1.32 -3 2 C-7.0939577 4.86577039 -9.01829886 7.41079736 -11 12 C-11.75 10.4375 -11.75 10.4375 -12 8 C-10.97667131 5.45280141 -9.72727704 3.13666413 -8 1 C-5.07175348 0.02391783 -3.04386724 -0.08226668 0 0 Z " fill="#BFA435" transform="translate(130,119)"/>
<path d="M0 0 C0.33 0 0.66 0 1 0 C1.37851209 5.93002267 0.10575375 10.47239641 -2 16 C-2.33 16 -2.66 16 -3 16 C-2.40984815 10.49191603 -1.43336231 5.35121931 0 0 Z " fill="#F3F5E7" transform="translate(4,101)"/>
<path d="M0 0 C2.31 0 4.62 0 7 0 C3.93024413 2.04650391 1.30915848 2.99704565 -2.1875 4.125 C-3.27417969 4.47820313 -4.36085938 4.83140625 -5.48046875 5.1953125 C-6.31191406 5.46085937 -7.14335938 5.72640625 -8 6 C-8.33 5.34 -8.66 4.68 -9 4 C-8.01 4 -7.02 4 -6 4 C-6 3.34 -6 2.68 -6 2 C-4.02 2 -2.04 2 0 2 C0 1.34 0 0.68 0 0 Z " fill="#C3AB21" transform="translate(130,23)"/>
<path d="M0 0 C1.18851563 0.28746094 2.37703125 0.57492188 3.6015625 0.87109375 C4.51679688 1.09925781 5.43203125 1.32742187 6.375 1.5625 C6.375 1.8925 6.375 2.2225 6.375 2.5625 C3.075 2.5625 -0.225 2.5625 -3.625 2.5625 C-3.625 1.9025 -3.625 1.2425 -3.625 0.5625 C-4.945 0.8925 -6.265 1.2225 -7.625 1.5625 C-7.955 0.9025 -8.285 0.2425 -8.625 -0.4375 C-5.54978317 -1.97510842 -3.27824882 -0.80349236 0 0 Z " fill="#AC981A" transform="translate(140.625,226.4375)"/>
<path d="M0 0 C0.99 0.33 1.98 0.66 3 1 C0.31941902 4.57410797 -2.42589203 7.31941902 -6 10 C-6.66 9.67 -7.32 9.34 -8 9 C-7.67 8.34 -7.34 7.68 -7 7 C-6.34 7 -5.68 7 -5 7 C-5 6.01 -5 5.02 -5 4 C-3.68 4 -2.36 4 -1 4 C-0.67 2.68 -0.34 1.36 0 0 Z " fill="#AC9C27" transform="translate(242,209)"/>
<path d="M0 0 C-1.28716647 1.00578589 -2.57988658 2.00446798 -3.875 3 C-4.95394531 3.8353125 -4.95394531 3.8353125 -6.0546875 4.6875 C-8 6 -8 6 -10 6 C-10 5.01 -10 4.02 -10 3 C-3.375 -1.125 -3.375 -1.125 0 0 Z " fill="#C4A422" transform="translate(218,150)"/>
<path d="M0 0 C0 1.65 0 3.3 0 5 C-4.625 7.125 -4.625 7.125 -8 6 C-7.01 5.67 -6.02 5.34 -5 5 C-4.6278958 3.67696283 -4.29369827 2.34262065 -4 1 C-2 0 -2 0 0 0 Z " fill="#BB9802" transform="translate(209,226)"/>
<path d="M0 0 C0 0.99 0 1.98 0 3 C-0.969375 2.979375 -1.93875 2.95875 -2.9375 2.9375 C-5.87465895 2.64381501 -5.87465895 2.64381501 -7 4 C-8.99958364 4.04080783 -11.00045254 4.04254356 -13 4 C-13 3.34 -13 2.68 -13 2 C-11.39658445 1.66307215 -9.79223445 1.33058907 -8.1875 1 C-7.29417969 0.814375 -6.40085938 0.62875 -5.48046875 0.4375 C-3 0 -3 0 0 0 Z " fill="#B1932B" transform="translate(196,227)"/>
<path d="M0 0 C0.33 0.99 0.66 1.98 1 3 C-2.63 3 -6.26 3 -10 3 C-5.78492722 -0.16130459 -4.93928888 -0.3367697 0 0 Z " fill="#C9A531" transform="translate(205,116)"/>
<path d="M0 0 C-0.33 1.32 -0.66 2.64 -1 4 C-4.3 4.33 -7.6 4.66 -11 5 C-4.33333333 0 -4.33333333 0 0 0 Z " fill="#B39718" transform="translate(129,16)"/>
<path d="M0 0 C0.721875 0.144375 1.44375 0.28875 2.1875 0.4375 C4.03480707 0.80696141 5.88950639 1.14151238 7.75 1.4375 C8.4925 1.623125 9.235 1.80875 10 2 C10.33 2.66 10.66 3.32 11 4 C11.99 4.66 12.98 5.32 14 6 C8.65155992 5.46515599 4.64203897 3.53309233 0 1 C0 0.67 0 0.34 0 0 Z " fill="#B49C2E" transform="translate(116,227)"/>
<path d="M0 0 C0.33 0.66 0.66 1.32 1 2 C0.06421005 4.35981813 -0.93347808 6.69631264 -2 9 C-3.32 8.67 -4.64 8.34 -6 8 C-4.02 5.36 -2.04 2.72 0 0 Z " fill="#AC961C" transform="translate(254,186)"/>
<path d="M0 0 C-0.66 2.31 -1.32 4.62 -2 7 C-5.875 2.25 -5.875 2.25 -7 0 C-3.86650268 -1.04449911 -3.01031744 -0.93423645 0 0 Z " fill="#C59B17" transform="translate(73,179)"/>
<path d="M0 0 C2.1875 1.4375 2.1875 1.4375 4 3 C3.01 3 2.02 3 1 3 C1 3.66 1 4.32 1 5 C-0.98 5 -2.96 5 -5 5 C-4.1875 3.0625 -4.1875 3.0625 -3 1 C-2.01 0.67 -1.02 0.34 0 0 Z " fill="#D4AD0D" transform="translate(170,162)"/>
<path d="M0 0 C1.32 0.66 2.64 1.32 4 2 C0.37 4.31 -3.26 6.62 -7 9 C-5.76465298 5.29395893 -3.80264776 3.66251537 -1 1 C-0.67 0.67 -0.34 0.34 0 0 Z " fill="#B6A226" transform="translate(110,32)"/>
<path d="M0 0 C0.99 0.66 1.98 1.32 3 2 C2.21625 2.9075 1.4325 3.815 0.625 4.75 C-1.30052496 7.05190236 -2.82205741 9.21577207 -4 12 C-4 9.69 -4 7.38 -4 5 C-2.68 4.34 -1.36 3.68 0 3 C0 2.01 0 1.02 0 0 Z " fill="#C3A62F" transform="translate(187,120)"/>
<path d="M0 0 C2.2477975 2.05233685 3.0022242 3.00667261 4 6 C3.01 6.66 2.02 7.32 1 8 C-1 5 -1 5 -0.625 2.3125 C-0.41875 1.549375 -0.2125 0.78625 0 0 Z " fill="#D09D0B" transform="translate(92,104)"/>
<path d="M0 0 C-3.465 2.97 -3.465 2.97 -7 6 C-7 4.35 -7 2.7 -7 1 C-3.375 -1.125 -3.375 -1.125 0 0 Z " fill="#B8A322" transform="translate(100,44)"/>
<path d="M0 0 C3.07614963 2.10078511 4.92414397 3.88621595 7 7 C2.56909529 5.79157144 0.01887244 4.48331435 -3 1 C-2.01 0.67 -1.02 0.34 0 0 Z " fill="#BC9B22" transform="translate(109,220)"/>
<path d="M0 0 C0.66 0.33 1.32 0.66 2 1 C2 2.32 2 3.64 2 5 C0.02 5 -1.96 5 -4 5 C-2.25 1.125 -2.25 1.125 0 0 Z " fill="#E9F6EB" transform="translate(18,206)"/>
<path d="M0 0 C0.66 0.33 1.32 0.66 2 1 C0.02 3.97 -1.96 6.94 -4 10 C-5.43088528 7.13822943 -4.59991697 5.06624227 -4 2 C-2.68 2 -1.36 2 0 2 C0 1.34 0 0.68 0 0 Z " fill="#B69F20" transform="translate(265,184)"/>
<path d="M0 0 C4.455 1.98 4.455 1.98 9 4 C8.67 4.66 8.34 5.32 8 6 C5.125 5.8125 5.125 5.8125 2 5 C0.625 2.4375 0.625 2.4375 0 0 Z " fill="#B7A51D" transform="translate(219,21)"/>
<path d="M0 0 C2.31 0 4.62 0 7 0 C1.85714286 4.42857143 1.85714286 4.42857143 -2 5 C-2 4.34 -2 3.68 -2 3 C-1.34 3 -0.68 3 0 3 C0 2.01 0 1.02 0 0 Z " fill="#B29B23" transform="translate(226,220)"/>
<path d="M0 0 C0.625 1.8125 0.625 1.8125 1 4 C0.01 5.485 0.01 5.485 -1 7 C-1.33 5.68 -1.66 4.36 -2 3 C-2.99 3 -3.98 3 -5 3 C-5 2.34 -5 1.68 -5 1 C-3.35 0.67 -1.7 0.34 0 0 Z " fill="#C8A504" transform="translate(102,207)"/>
<path d="M0 0 C2.23960447 2.87949147 4.29864224 5.76742026 6 9 C5.67 9.66 5.34 10.32 5 11 C4.67 10.01 4.34 9.02 4 8 C3.01 8 2.02 8 1 8 C0.67 5.36 0.34 2.72 0 0 Z " fill="#B29929" transform="translate(73,172)"/>
<path d="M0 0 C0.66 0.33 1.32 0.66 2 1 C2 2.32 2 3.64 2 5 C1.01 5.33 0.02 5.66 -1 6 C-1.66 4.35 -2.32 2.7 -3 1 C-2.01 0.67 -1.02 0.34 0 0 Z " fill="#CA9A0F" transform="translate(115,129)"/>
<path d="M0 0 C0 1.65 0 3.3 0 5 C-1.32 5 -2.64 5 -4 5 C-4.33 3.68 -4.66 2.36 -5 1 C-3 0 -3 0 0 0 Z " fill="#CC990B" transform="translate(224,129)"/>
<path d="M0 0 C1.65 0 3.3 0 5 0 C7.09230769 4.43076923 7.09230769 4.43076923 6.625 7.3125 C6.41875 7.869375 6.2125 8.42625 6 9 C5.0234375 7.2421875 4.046875 5.484375 3.0703125 3.7265625 C1.99102726 1.8387386 1.99102726 1.8387386 0 0 Z " fill="#C0A330" transform="translate(146,121)"/>
<path d="M0 0 C4 2 4 2 5.3125 4.4375 C6 7 6 7 5 10 C3.35 6.7 1.7 3.4 0 0 Z " fill="#B9A43A" transform="translate(91,115)"/>
<path d="M0 0 C1.5625 1.1875 1.5625 1.1875 3 3 C2.6875 5.6875 2.6875 5.6875 2 8 C1.01 7.67 0.02 7.34 -1 7 C-0.67 4.69 -0.34 2.38 0 0 Z " fill="#C9A011" transform="translate(23,128)"/>
<path d="M0 0 C2.4294516 3.6441774 2.16179575 5.71241272 2 10 C1.01 9.34 0.02 8.68 -1 8 C-0.67 5.36 -0.34 2.72 0 0 Z " fill="#B8A51F" transform="translate(311,104)"/>
<path d="M0 0 C1.485 0.99 1.485 0.99 3 2 C3.40843923 4.71203652 3.13336867 7.2437142 3 10 C0.70366176 6.55549263 0.45983515 4.06187717 0 0 Z " fill="#C1A633" transform="translate(88,103)"/>
<path d="M0 0 C0.66 0.33 1.32 0.66 2 1 C1.19152271 2.16945792 0.37810888 3.33550461 -0.4375 4.5 C-0.88996094 5.1496875 -1.34242187 5.799375 -1.80859375 6.46875 C-2.20175781 6.9740625 -2.59492187 7.479375 -3 8 C-3.33 8 -3.66 8 -4 8 C-4 6.35 -4 4.7 -4 3 C-3.34 3 -2.68 3 -2 3 C-2 2.34 -2 1.68 -2 1 C-1.34 0.67 -0.68 0.34 0 0 Z " fill="#B29E2A" transform="translate(40,93)"/>
<path d="M0 0 C2.375 0.3125 2.375 0.3125 5 1 C5.66 1.99 6.32 2.98 7 4 C6.34 4.66 5.68 5.32 5 6 C3.35 4.02 1.7 2.04 0 0 Z " fill="#C4A61F" transform="translate(247,54)"/>
<path d="M0 0 C0 0.99 0 1.98 0 3 C-2.64 3.66 -5.28 4.32 -8 5 C-3.16129032 0 -3.16129032 0 0 0 Z " fill="#B29823" transform="translate(114,23)"/>
<path d="M0 0 C1.98 0.66 3.96 1.32 6 2 C5.67 2.99 5.34 3.98 5 5 C4.01 5 3.02 5 2 5 C1.34 3.35 0.68 1.7 0 0 Z " fill="#B8A015" transform="translate(112,215)"/>
<path d="M0 0 C-0.33 0.99 -0.66 1.98 -1 3 C-3.4375 2.625 -3.4375 2.625 -6 2 C-6.33 1.34 -6.66 0.68 -7 0 C-2.25 -1.125 -2.25 -1.125 0 0 Z " fill="#C19B19" transform="translate(107,217)"/>
<path d="M0 0 C2.475 0.99 2.475 0.99 5 2 C4.01 2.99 3.02 3.98 2 5 C1.01 4.34 0.02 3.68 -1 3 C-0.67 2.01 -0.34 1.02 0 0 Z " fill="#B49514" transform="translate(93,201)"/>
<path d="M0 0 C1.98 0.66 3.96 1.32 6 2 C6.33 3.98 6.66 5.96 7 8 C4.35247996 5.42215154 2.05567935 3.08351902 0 0 Z " fill="#BA9D28" transform="translate(75,193)"/>
<path d="M0 0 C1.5625 1.8125 1.5625 1.8125 3 4 C2.67 4.99 2.34 5.98 2 7 C0.68 6.67 -0.64 6.34 -2 6 C-1.49396008 3.83125748 -1.00016187 2.00032373 0 0 Z " fill="#B79A12" transform="translate(299,149)"/>
<path d="M0 0 C0.66 0 1.32 0 2 0 C3.625 2.5 3.625 2.5 5 5 C3.35 4.67 1.7 4.34 0 4 C0 2.68 0 1.36 0 0 Z " fill="#C69E1B" transform="translate(118,146)"/>
<path d="M0 0 C0.66 0 1.32 0 2 0 C0.52307692 4.67692308 0.52307692 4.67692308 -2.125 6.3125 C-3.053125 6.6528125 -3.053125 6.6528125 -4 7 C-1.125 1.125 -1.125 1.125 0 0 Z " fill="#BA9A02" transform="translate(239,119)"/>
<path d="" fill="#FFFFFF" transform="translate(0,0)"/>
<path d="" fill="#FFFFFF" transform="translate(0,0)"/>
<path d="" fill="#FFFFFF" transform="translate(0,0)"/>
<path d="" fill="#FFFFFF" transform="translate(0,0)"/>
<path d="" fill="#FFFFFF" transform="translate(0,0)"/>
<path d="" fill="#FFFFFF" transform="translate(0,0)"/>
<path d="" fill="#FFFFFF" transform="translate(0,0)"/>
<path d="" fill="#FFFFFF" transform="translate(0,0)"/>
<path d="" fill="#FFFFFF" transform="translate(0,0)"/>
<path d="" fill="#FFFFFF" transform="translate(0,0)"/>
<path d="" fill="#FFFFFF" transform="translate(0,0)"/>
<path d="" fill="#FFFFFF" transform="translate(0,0)"/>
<path d="" fill="#FFFFFF" transform="translate(0,0)"/>
<path d="" fill="#FFFFFF" transform="translate(0,0)"/>
<path d="" fill="#FFFFFF" transform="translate(0,0)"/>
<path d="" fill="#FFFFFF" transform="translate(0,0)"/>
<path d="" fill="#FFFFFF" transform="translate(0,0)"/>
<path d="" fill="#FFFFFF" transform="translate(0,0)"/>
<path d="" fill="#FFFFFF" transform="translate(0,0)"/>
<path d="" fill="#FFFFFF" transform="translate(0,0)"/>
<path d="" fill="#FFFFFF" transform="translate(0,0)"/>
<path d="" fill="#FFFFFF" transform="translate(0,0)"/>
<path d="" fill="#FFFFFF" transform="translate(0,0)"/>
<path d="" fill="#FFFFFF" transform="translate(0,0)"/>
<path d="" fill="#FFFFFF" transform="translate(0,0)"/>
<path d="" fill="#FFFFFF" transform="translate(0,0)"/>
<path d="" fill="#FFFFFF" transform="translate(0,0)"/>
<path d="" fill="#FFFFFF" transform="translate(0,0)"/>
<path d="" fill="#FFFFFF" transform="translate(0,0)"/>
<path d="" fill="#FFFFFF" transform="translate(0,0)"/>
<path d="" fill="#FFFFFF" transform="translate(0,0)"/>
<path d="" fill="#FFFFFF" transform="translate(0,0)"/>
<path d="" fill="#FFFFFF" transform="translate(0,0)"/>
<path d="" fill="#FFFFFF" transform="translate(0,0)"/>
<path d="" fill="#FFFFFF" transform="translate(0,0)"/>
<path d="" fill="#FFFFFF" transform="translate(0,0)"/>
<path d="" fill="#FFFFFF" transform="translate(0,0)"/>
<path d="" fill="#FFFFFF" transform="translate(0,0)"/>
<path d="" fill="#FFFFFF" transform="translate(0,0)"/>
<path d="" fill="#FFFFFF" transform="translate(0,0)"/>
<path d="" fill="#FFFFFF" transform="translate(0,0)"/>
<path d="" fill="#FFFFFF" transform="translate(0,0)"/>
<path d="" fill="#FFFFFF" transform="translate(0,0)"/>
<path d="" fill="#FFFFFF" transform="translate(0,0)"/>
<path d="" fill="#FFFFFF" transform="translate(0,0)"/>
<path d="" fill="#FFFFFF" transform="translate(0,0)"/>
<path d="" fill="#FFFFFF" transform="translate(0,0)"/>
<path d="" fill="#FFFFFF" transform="translate(0,0)"/>
<path d="" fill="#FFFFFF" transform="translate(0,0)"/>
<path d="" fill="#FFFFFF" transform="translate(0,0)"/>
<path d="" fill="#FFFFFF" transform="translate(0,0)"/>
</svg>
