<svg xmlns:xlink="http://www.w3.org/1999/xlink" xmlns="http://www.w3.org/2000/svg" width="402" height="121" viewBox="0 0 402 121" fill="none">
<path d="M353.948 2.24036C358.831 2.24036 362.79 6.19852 362.79 11.0818C362.79 15.9647 358.831 19.9228 353.948 19.9228C349.066 19.9228 345.107 15.9647 345.107 11.0818C345.107 6.19852 349.066 2.24036 353.948 2.24036Z" fill="#FF8000"/>
<path d="M390.498 16.7814C396.395 16.7814 401.177 21.5624 401.177 27.4598C401.177 33.3572 396.396 38.1381 390.498 38.1381C384.6 38.1381 379.82 33.3572 379.82 27.4598C379.82 21.5624 384.601 16.7814 390.498 16.7814Z" fill="#FF1E1A"/>
<path d="M371.094 0C374.159 0 376.644 2.48497 376.644 5.55042C376.644 8.61633 374.159 11.1013 371.094 11.1013C368.028 11.1013 365.543 8.61633 365.543 5.55042C365.543 2.48497 368.028 0 371.094 0Z" fill="#FF0083"/>
<path d="M371.094 17.7723C374.159 17.7723 376.644 20.2573 376.644 23.3228C376.644 26.3887 374.159 28.8736 371.094 28.8736C368.028 28.8736 365.543 26.3887 365.543 23.3228C365.543 20.2573 368.028 17.7723 371.094 17.7723Z" fill="#911B83"/>
<path d="M387.706 41.5186C391.67 41.5186 394.884 44.7322 394.884 48.6974C394.884 52.662 391.669 55.8757 387.706 55.8757C383.741 55.8757 380.527 52.662 380.527 48.6974C380.527 44.7322 383.741 41.5186 387.706 41.5186Z" fill="#00B7F3"/>
<path d="M342.996 22.2975C323.85 22.2975 308.322 37.8244 308.322 56.9709C308.322 76.1173 323.85 91.6442 342.996 91.6442C362.142 91.6442 377.669 76.1173 377.669 56.9709C377.669 37.8244 362.142 22.2975 342.996 22.2975ZM342.996 77.735C331.531 77.735 322.232 68.4358 322.232 56.9658C322.232 45.5008 331.531 36.2118 342.996 36.2118C354.461 36.2118 363.765 45.5008 363.765 56.9658C363.765 68.4358 354.466 77.735 342.996 77.735Z" fill="#007591"/>
<path d="M363.765 56.9709C363.765 68.4359 354.466 77.7402 342.996 77.7402C331.531 77.7402 322.231 68.4405 322.231 56.9709C322.231 45.506 331.531 36.2165 342.996 36.2165C354.466 36.2165 363.765 45.5064 363.765 56.9709Z" fill="#FDDC02"/>
<path d="M256.35 23.811C251.143 23.811 241.654 29.9095 241.459 37.9347V88.4189V89.9273V90.0514H241.585H243.377H266.784C276.72 90.0514 285.751 86.9253 292.193 80.7221C298.56 74.614 302.07 66.1908 302.07 57.0209V56.8319C302.07 37.6405 287.235 23.811 266.784 23.811H256.35ZM286.672 57.1997C286.672 68.7193 278.677 76.4504 266.789 76.4504H256.335V37.5909H266.789C278.677 37.5909 286.672 45.4165 286.672 57.026V57.1997Z" fill="#007591"/>
<path d="M76.0784 23.8606C66.2311 23.8606 59.3363 28.4205 54.1639 35.3056C50.7144 28.4256 44.0577 23.8606 34.7089 23.8606C24.7473 23.8606 19.0722 29.2869 14.8954 35.0615V26.1158C14.8407 24.5773 13.4069 23.8805 11.7785 24.4082C6.53709 26.101 0 31.4925 0 38.1978V90.0612H14.8949V53.5357C14.8949 43.5592 20.55 37.3964 28.8036 37.3964C37.053 37.3964 41.9809 43.0668 41.9809 53.1674V90.0663H56.8759V53.5408C56.8759 43.0714 62.6602 37.4015 70.7753 37.4015C79.1535 37.4015 83.9526 42.9473 83.9526 53.292V90.0709H98.8568V48.727C98.8582 32.8466 90.2363 23.8606 76.0784 23.8606Z" fill="#007591"/>
<path d="M162.849 24.3735C157.626 25.9815 151.03 31.2933 150.906 37.9838V61.8245C150.906 71.9154 144.873 77.8346 136.256 77.8346C127.384 77.8346 122.336 72.1693 122.336 62.0687V26.0561C122.256 24.5625 120.862 23.8805 119.27 24.3735C114.018 26.051 107.451 31.4527 107.451 38.1779H107.437V66.4943C107.437 81.6478 115.929 91.5047 130.585 91.5047C140.686 91.5047 146.724 86.2031 150.906 80.0402V90.0561H165.94V26.1306C165.905 24.5773 164.481 23.8657 162.849 24.3735Z" fill="#007591"/>
<path d="M209.739 23.7958C224.396 23.7958 232.898 33.6476 232.898 48.677V90.026H217.998V53.2272C217.998 43.1261 212.94 37.3418 204.079 37.3418C195.456 37.3418 189.418 43.3703 189.418 53.4709V90.0658H174.518V38.1881C174.518 31.4578 181.1 26.0463 186.351 24.3739C187.984 23.881 189.413 24.6074 189.413 26.1858C189.413 26.1909 189.418 26.196 189.418 26.2006V35.1218C193.6 29.0826 199.638 23.7958 209.739 23.7958Z" fill="#007591"/>
<path d="M0.000976562 107.819H8.01045V109.924H2.3154V112.165H7.33353V114.271H2.3154V118.343H0.000976562V107.819Z" fill="#007591"/>
<path d="M19.7945 107.819H17.4795V118.343H19.7945V107.819Z" fill="#007591"/>
<path d="M29.9395 107.819H34.8232C36.0282 107.819 36.9741 108.148 37.5759 108.75C38.0586 109.233 38.2977 109.815 38.2977 110.537V110.567C38.2977 111.756 37.6658 112.414 36.9139 112.837C38.1342 113.305 38.8856 114.012 38.8856 115.42V115.451C38.8856 117.372 37.3226 118.338 34.9479 118.338H29.9395V107.819ZM35.998 110.93C35.998 110.238 35.4551 109.85 34.48 109.85H32.1946V112.075H34.3303C35.3509 112.075 35.998 111.747 35.998 110.965V110.93ZM34.8732 113.996H32.1997V116.311H34.953C35.9735 116.311 36.5906 115.953 36.5906 115.171V115.141C36.5855 114.43 36.0578 113.996 34.8732 113.996Z" fill="#007591"/>
<path d="M48.3096 107.819H53.1187C54.458 107.819 55.493 108.192 56.1851 108.884C56.773 109.471 57.0861 110.298 57.0861 111.289V111.318C57.0861 113.016 56.1703 114.086 54.831 114.579L57.3997 118.338H54.6966L52.4414 114.973H50.6244V118.338H48.3096V107.819ZM52.9691 112.926C54.0943 112.926 54.7415 112.324 54.7415 111.438V111.408C54.7415 110.417 54.0494 109.904 52.9237 109.904H50.624V112.926H52.9691Z" fill="#007591"/>
<path d="M70.3031 107.744H72.4389L76.9487 118.343H74.5291L73.5683 115.983H69.1182L68.1572 118.343H65.7974L70.3031 107.744ZM72.7377 113.937L71.3386 110.527L69.9395 113.937H72.7377Z" fill="#007591"/>
<path d="M99.4757 106.345C99.9737 106.345 100.377 106.749 100.377 107.246V119.363C100.377 119.861 99.9737 120.264 99.4757 120.264C98.9782 120.264 98.5752 119.861 98.5752 119.363V107.246C98.5752 106.749 98.9782 106.345 99.4757 106.345Z" fill="#FDDC02"/>
<path d="M122.914 107.819H125.408L128.175 112.269L130.943 107.819H133.438V118.343H131.137V111.473L128.175 115.968H128.115L125.183 111.517V118.343H122.914V107.819Z" fill="#007591"/>
<path d="M143.011 113.11V113.081C143.011 110.089 145.371 107.639 148.617 107.639C151.862 107.639 154.192 110.059 154.192 113.05V113.081C154.192 116.072 151.832 118.522 148.587 118.522C145.341 118.522 143.011 116.097 143.011 113.11ZM151.773 113.11V113.081C151.773 111.278 150.449 109.775 148.587 109.775C146.724 109.775 145.43 111.248 145.43 113.05V113.081C145.43 114.883 146.754 116.386 148.617 116.386C150.479 116.386 151.773 114.913 151.773 113.11ZM149.488 104.478L151.458 105.334L149.413 106.838H147.67L149.488 104.478Z" fill="#007591"/>
<path d="M162.191 107.819H164.745L167.498 115.231L170.251 107.819H172.746L168.489 118.417H166.443L162.191 107.819Z" fill="#007591"/>
<path d="M184.3 107.819H181.985V118.343H184.3V107.819Z" fill="#007591"/>
<path d="M194.451 107.819H196.766V116.237H202.013V118.343H194.451V107.819Z" fill="#007591"/>
<path d="M224.663 106.345C225.161 106.345 225.564 106.749 225.564 107.246V119.363C225.564 119.861 225.161 120.264 224.663 120.264C224.165 120.264 223.762 119.861 223.762 119.363V107.246C223.762 106.749 224.165 106.345 224.663 106.345Z" fill="#FDDC02"/>
<path d="M250.545 109.949H247.344V107.814H256.061V109.949H252.86V118.338H250.545V109.949Z" fill="#007591"/>
<path d="M264.449 107.819H267.003L269.756 115.231L272.51 107.819H275.004L270.747 118.417H268.701L264.449 107.819Z" fill="#007591"/>
<path d="M297.535 106.345C298.032 106.345 298.436 106.749 298.436 107.246V119.363C298.436 119.861 298.032 120.264 297.535 120.264C297.036 120.264 296.634 119.861 296.634 119.363V107.246C296.634 106.749 297.036 106.345 297.535 106.345Z" fill="#FDDC02"/>
<path d="M320.967 107.819H328.977V109.924H323.282V112.165H328.3V114.271H323.282V118.343H320.967V107.819Z" fill="#007591"/>
<path d="M340.766 107.819H338.451V118.343H340.766V107.819Z" fill="#007591"/>
<path d="M349.861 116.909L351.32 115.286C351.922 115.948 352.509 116.336 353.241 116.336C354.113 116.336 354.655 115.809 354.655 114.594V107.819H357.03V114.704C357.03 115.953 356.671 116.884 356.039 117.516C355.392 118.163 354.446 118.492 353.306 118.492C351.663 118.487 350.583 117.77 349.861 116.909Z" fill="#007591"/>
<path d="M366.439 113.11V113.081C366.439 110.089 368.798 107.639 372.045 107.639C375.291 107.639 377.62 110.059 377.62 113.05V113.081C377.62 116.072 375.26 118.522 372.014 118.522C368.769 118.522 366.439 116.098 366.439 113.11ZM375.205 113.11V113.081C375.205 111.278 373.882 109.775 372.019 109.775C370.157 109.775 368.863 111.248 368.863 113.05V113.081C368.863 114.883 370.187 116.386 372.05 116.386C373.911 116.386 375.205 114.913 375.205 113.11Z" fill="#007591"/>
</svg>